<?xml version="1.0" encoding="UTF-8"?><svg id="a" xmlns="http://www.w3.org/2000/svg" viewBox="0 0 315.13 205.55"><defs><style>.b{fill:#8c6239;}.c{fill:#ffff50;}.d{fill:#ffc808;}.e{fill:#a67c52;}.f{fill:#c69c6d;}.g{fill:#ffff8a;}.h{fill:#fde600;}.i{fill:#ffdf08;}.j{fill:#ff0;}</style></defs><rect class="e" x="304.49" y="162.07" width="4.95" height="4.95" transform="translate(14.29 353.34) rotate(-61.02)"/><rect class="b" x="306.89" y="157.74" width="4.95" height="4.95" transform="translate(19.32 353.21) rotate(-61.02)"/><rect class="b" x="309.29" y="153.41" width="4.95" height="4.95" transform="translate(24.34 353.08) rotate(-61.02)"/><rect class="d" x="295.36" y="168.33" width="4.96" height="4.95" transform="translate(4.11 348.59) rotate(-61.02)"/><rect class="d" x="297.77" y="164" width="4.95" height="4.95" transform="translate(9.14 348.45) rotate(-61.02)"/><rect class="i" x="300.16" y="159.67" width="4.95" height="4.95" transform="translate(14.16 348.32) rotate(-61.02)"/><rect class="i" x="302.56" y="155.34" width="4.95" height="4.95" transform="translate(19.18 348.19) rotate(-61.02)"/><rect class="b" x="304.96" y="151.01" width="4.95" height="4.95" transform="translate(24.21 348.05) rotate(-61.02)"/><rect class="b" x="307.36" y="146.68" width="4.95" height="4.95" transform="translate(29.23 347.92) rotate(-61.02)"/><rect class="d" x="286.24" y="174.6" width="4.95" height="4.95" transform="translate(-6.08 343.83) rotate(-61.02)"/><rect class="i" x="288.63" y="170.27" width="4.95" height="4.95" transform="translate(-1.06 343.7) rotate(-61.02)"/><rect class="i" x="291.03" y="165.94" width="4.96" height="4.95" transform="translate(3.97 343.56) rotate(-61.02)"/><rect class="i" x="293.44" y="161.6" width="4.95" height="4.95" transform="translate(9 343.43) rotate(-61.02)"/><rect class="d" x="295.83" y="157.27" width="4.95" height="4.95" transform="translate(14.03 343.3) rotate(-61.02)"/><rect class="i" x="298.23" y="152.94" width="4.95" height="4.95" transform="translate(19.05 343.16) rotate(-61.02)"/><rect class="i" x="300.63" y="148.61" width="4.95" height="4.95" transform="translate(24.07 343.03) rotate(-61.02)"/><rect class="b" x="303.03" y="144.28" width="4.95" height="4.95" transform="translate(29.1 342.89) rotate(-61.02)"/><rect class="d" x="279.51" y="176.53" width="4.95" height="4.95" transform="translate(-11.24 338.94) rotate(-61.02)"/><rect class="i" x="281.91" y="172.2" width="4.95" height="4.95" transform="translate(-6.21 338.81) rotate(-61.02)"/><rect class="i" x="284.3" y="167.87" width="4.95" height="4.95" transform="translate(-1.19 338.67) rotate(-61.02)"/><rect class="d" x="286.7" y="163.54" width="4.96" height="4.95" transform="translate(3.84 338.54) rotate(-61.02)"/><rect class="j" x="289.11" y="159.2" width="4.95" height="4.95" transform="translate(8.87 338.4) rotate(-61.02)"/><rect class="j" x="291.5" y="154.87" width="4.95" height="4.95" transform="translate(13.89 338.27) rotate(-61.02)"/><rect class="g" x="293.9" y="150.54" width="4.95" height="4.95" transform="translate(18.92 338.14) rotate(-61.02)"/><rect class="e" x="296.3" y="146.21" width="4.95" height="4.95" transform="translate(23.94 338) rotate(-61.02)"/><rect class="d" x="270.38" y="182.79" width="4.95" height="4.95" transform="translate(-21.42 334.18) rotate(-61.02)"/><rect class="d" x="272.78" y="178.46" width="4.95" height="4.95" transform="translate(-16.4 334.05) rotate(-61.02)"/><rect class="i" x="275.18" y="174.13" width="4.95" height="4.95" transform="translate(-11.37 333.92) rotate(-61.02)"/><rect class="i" x="277.58" y="169.8" width="4.95" height="4.95" transform="translate(-6.35 333.78) rotate(-61.02)"/><rect class="i" x="279.97" y="165.47" width="4.95" height="4.95" transform="translate(-1.32 333.65) rotate(-61.02)"/><rect class="j" x="282.37" y="161.14" width="4.96" height="4.95" transform="translate(3.71 333.51) rotate(-61.02)"/><rect class="j" x="284.78" y="156.8" width="4.95" height="4.95" transform="translate(8.73 333.38) rotate(-61.02)"/><rect class="g" x="287.17" y="152.47" width="4.95" height="4.95" transform="translate(13.76 333.25) rotate(-61.02)"/><rect class="g" x="289.57" y="148.14" width="4.95" height="4.95" transform="translate(18.78 333.11) rotate(-61.02)"/><rect class="c" x="291.97" y="143.81" width="4.95" height="4.95" transform="translate(23.81 332.98) rotate(-61.02)"/><rect class="d" x="263.65" y="184.73" width="4.95" height="4.95" transform="translate(-26.58 329.29) rotate(-61.02)"/><rect class="d" x="266.05" y="180.39" width="4.95" height="4.95" transform="translate(-21.55 329.16) rotate(-61.02)"/><rect class="h" x="268.45" y="176.06" width="4.95" height="4.95" transform="translate(-16.53 329.03) rotate(-61.02)"/><rect class="j" x="270.85" y="171.73" width="4.95" height="4.95" transform="translate(-11.51 328.89) rotate(-61.02)"/><rect class="j" x="273.25" y="167.4" width="4.95" height="4.95" transform="translate(-6.48 328.76) rotate(-61.02)"/><rect class="j" x="275.64" y="163.07" width="4.95" height="4.95" transform="translate(-1.46 328.62) rotate(-61.02)"/><rect class="i" x="278.04" y="158.74" width="4.96" height="4.95" transform="translate(3.57 328.49) rotate(-61.02)"/><rect class="j" x="280.45" y="154.41" width="4.95" height="4.95" transform="translate(8.6 328.36) rotate(-61.02)"/><rect class="g" x="282.84" y="150.08" width="4.95" height="4.95" transform="translate(13.62 328.22) rotate(-61.02)"/><rect class="g" x="285.24" y="145.75" width="4.95" height="4.95" transform="translate(18.65 328.09) rotate(-61.02)"/><rect class="c" x="287.64" y="141.42" width="4.95" height="4.95" transform="translate(23.67 327.95) rotate(-61.02)"/><rect class="d" x="256.92" y="186.66" width="4.95" height="4.95" transform="translate(-31.74 324.4) rotate(-61.02)"/><rect class="d" x="259.32" y="182.33" width="4.95" height="4.95" transform="translate(-26.71 324.27) rotate(-61.02)"/><rect class="d" x="261.72" y="178" width="4.95" height="4.95" transform="translate(-21.69 324.14) rotate(-61.02)"/><rect class="j" x="264.12" y="173.67" width="4.95" height="4.95" transform="translate(-16.66 324) rotate(-61.02)"/><rect class="i" x="266.52" y="169.34" width="4.95" height="4.95" transform="translate(-11.64 323.87) rotate(-61.02)"/><rect class="j" x="268.92" y="165.01" width="4.95" height="4.95" transform="translate(-6.62 323.73) rotate(-61.02)"/><rect class="j" x="271.31" y="160.68" width="4.95" height="4.95" transform="translate(-1.59 323.6) rotate(-61.02)"/><rect class="i" x="273.71" y="156.34" width="4.96" height="4.95" transform="translate(3.44 323.47) rotate(-61.02)"/><rect class="g" x="276.12" y="152.01" width="4.95" height="4.95" transform="translate(8.47 323.33) rotate(-61.02)"/><rect class="g" x="278.51" y="147.68" width="4.95" height="4.95" transform="translate(13.49 323.2) rotate(-61.02)"/><rect class="g" x="280.91" y="143.35" width="4.95" height="4.95" transform="translate(18.51 323.06) rotate(-61.02)"/><rect class="d" x="250.19" y="188.59" width="4.95" height="4.95" transform="translate(-36.89 319.51) rotate(-61.02)"/><rect class="d" x="252.59" y="184.26" width="4.95" height="4.95" transform="translate(-31.87 319.38) rotate(-61.02)"/><rect class="i" x="254.99" y="179.93" width="4.95" height="4.95" transform="translate(-26.85 319.25) rotate(-61.02)"/><rect class="i" x="257.39" y="175.6" width="4.95" height="4.95" transform="translate(-21.82 319.11) rotate(-61.02)"/><rect class="j" x="259.79" y="171.27" width="4.95" height="4.95" transform="translate(-16.8 318.98) rotate(-61.02)"/><rect class="j" x="262.19" y="166.94" width="4.95" height="4.95" transform="translate(-11.77 318.84) rotate(-61.02)"/><rect class="j" x="264.59" y="162.61" width="4.95" height="4.95" transform="translate(-6.75 318.71) rotate(-61.02)"/><rect class="j" x="266.98" y="158.28" width="4.95" height="4.95" transform="translate(-1.73 318.58) rotate(-61.02)"/><rect class="j" x="269.38" y="153.94" width="4.96" height="4.95" transform="translate(3.3 318.44) rotate(-61.02)"/><rect class="g" x="271.79" y="149.61" width="4.95" height="4.95" transform="translate(8.33 318.31) rotate(-61.02)"/><rect class="g" x="274.18" y="145.28" width="4.95" height="4.95" transform="translate(13.36 318.17) rotate(-61.02)"/><rect class="c" x="276.58" y="140.95" width="4.95" height="4.95" transform="translate(18.38 318.04) rotate(-61.02)"/><rect class="d" x="243.47" y="190.52" width="4.95" height="4.95" transform="translate(-42.05 314.62) rotate(-61.02)"/><rect class="d" x="245.86" y="186.19" width="4.95" height="4.95" transform="translate(-37.03 314.49) rotate(-61.02)"/><rect class="i" x="248.26" y="181.86" width="4.95" height="4.95" transform="translate(-32 314.36) rotate(-61.02)"/><rect class="h" x="250.66" y="177.53" width="4.95" height="4.95" transform="translate(-26.98 314.22) rotate(-61.02)"/><rect class="j" x="253.06" y="173.2" width="4.95" height="4.95" transform="translate(-21.96 314.09) rotate(-61.02)"/><rect class="j" x="255.46" y="168.87" width="4.95" height="4.95" transform="translate(-16.93 313.95) rotate(-61.02)"/><rect class="j" x="257.86" y="164.54" width="4.95" height="4.95" transform="translate(-11.91 313.82) rotate(-61.02)"/><rect class="j" x="260.26" y="160.21" width="4.95" height="4.95" transform="translate(-6.88 313.69) rotate(-61.02)"/><rect class="j" x="262.65" y="155.88" width="4.95" height="4.95" transform="translate(-1.86 313.55) rotate(-61.02)"/><rect class="g" x="265.05" y="151.54" width="4.96" height="4.95" transform="translate(3.17 313.42) rotate(-61.02)"/><rect class="g" x="267.46" y="147.21" width="4.95" height="4.95" transform="translate(8.2 313.28) rotate(-61.02)"/><rect class="c" x="269.85" y="142.88" width="4.95" height="4.95" transform="translate(13.22 313.15) rotate(-61.02)"/><rect class="d" x="236.74" y="192.45" width="4.95" height="4.95" transform="translate(-47.21 309.73) rotate(-61.02)"/><rect class="d" x="239.14" y="188.12" width="4.95" height="4.95" transform="translate(-42.19 309.6) rotate(-61.02)"/><rect class="i" x="241.53" y="183.79" width="4.95" height="4.95" transform="translate(-37.16 309.47) rotate(-61.02)"/><rect class="i" x="243.93" y="179.46" width="4.95" height="4.95" transform="translate(-32.14 309.33) rotate(-61.02)"/><rect class="j" x="246.33" y="175.13" width="4.95" height="4.95" transform="translate(-27.11 309.2) rotate(-61.02)"/><rect class="j" x="248.73" y="170.8" width="4.95" height="4.95" transform="translate(-22.09 309.06) rotate(-61.02)"/><rect class="j" x="251.13" y="166.47" width="4.95" height="4.95" transform="translate(-17.07 308.93) rotate(-61.02)"/><rect class="j" x="253.53" y="162.14" width="4.95" height="4.95" transform="translate(-12.04 308.8) rotate(-61.02)"/><rect class="j" x="255.93" y="157.81" width="4.95" height="4.95" transform="translate(-7.02 308.66) rotate(-61.02)"/><rect class="g" x="258.32" y="153.48" width="4.95" height="4.95" transform="translate(-1.99 308.53) rotate(-61.02)"/><rect class="g" x="260.72" y="149.15" width="4.96" height="4.95" transform="translate(3.04 308.39) rotate(-61.02)"/><rect class="g" x="263.13" y="144.81" width="4.95" height="4.95" transform="translate(8.06 308.26) rotate(-61.02)"/><rect class="d" x="230" y="194.38" width="4.95" height="4.96" transform="translate(-52.37 304.84) rotate(-61.02)"/><rect class="d" x="232.4" y="190.05" width="4.95" height="4.96" transform="translate(-47.35 304.7) rotate(-61.02)"/><rect class="i" x="234.8" y="185.72" width="4.95" height="4.96" transform="translate(-42.32 304.57) rotate(-61.02)"/><rect class="i" x="237.2" y="181.39" width="4.95" height="4.96" transform="translate(-37.3 304.44) rotate(-61.02)"/><rect class="d" x="239.6" y="177.06" width="4.95" height="4.96" transform="translate(-32.27 304.3) rotate(-61.02)"/><rect class="j" x="242" y="172.73" width="4.95" height="4.96" transform="translate(-27.25 304.17) rotate(-61.02)"/><rect class="j" x="244.4" y="168.4" width="4.95" height="4.96" transform="translate(-22.22 304.03) rotate(-61.02)"/><rect class="j" x="246.79" y="164.07" width="4.95" height="4.96" transform="translate(-17.2 303.9) rotate(-61.02)"/><rect class="j" x="249.19" y="159.74" width="4.95" height="4.96" transform="translate(-12.18 303.77) rotate(-61.02)"/><rect class="c" x="251.59" y="155.4" width="4.95" height="4.96" transform="translate(-7.15 303.63) rotate(-61.02)"/><rect class="g" x="253.99" y="151.07" width="4.95" height="4.96" transform="translate(-2.13 303.5) rotate(-61.02)"/><rect class="g" x="256.39" y="146.74" width="4.96" height="4.96" transform="translate(2.9 303.36) rotate(-61.02)"/><rect class="c" x="258.79" y="142.41" width="4.95" height="4.96" transform="translate(7.93 303.23) rotate(-61.02)"/><rect class="d" x="223.27" y="196.31" width="4.95" height="4.95" transform="translate(-57.53 299.94) rotate(-61.02)"/><rect class="d" x="225.67" y="191.98" width="4.95" height="4.95" transform="translate(-52.5 299.81) rotate(-61.02)"/><rect class="i" x="228.07" y="187.65" width="4.95" height="4.95" transform="translate(-47.48 299.67) rotate(-61.02)"/><rect class="h" x="230.47" y="183.32" width="4.95" height="4.95" transform="translate(-42.46 299.54) rotate(-61.02)"/><rect class="h" x="232.87" y="178.99" width="4.95" height="4.95" transform="translate(-37.43 299.41) rotate(-61.02)"/><rect class="j" x="235.26" y="174.66" width="4.95" height="4.95" transform="translate(-32.41 299.27) rotate(-61.02)"/><rect class="j" x="237.66" y="170.33" width="4.95" height="4.95" transform="translate(-27.38 299.14) rotate(-61.02)"/><rect class="i" x="240.06" y="166" width="4.95" height="4.95" transform="translate(-22.36 299.01) rotate(-61.02)"/><rect class="j" x="242.46" y="161.67" width="4.95" height="4.95" transform="translate(-17.33 298.87) rotate(-61.02)"/><rect class="j" x="244.86" y="157.34" width="4.95" height="4.95" transform="translate(-12.31 298.74) rotate(-61.02)"/><rect class="g" x="247.26" y="153.01" width="4.95" height="4.95" transform="translate(-7.29 298.6) rotate(-61.02)"/><rect class="g" x="249.65" y="148.68" width="4.95" height="4.95" transform="translate(-2.26 298.47) rotate(-61.02)"/><rect class="c" x="252.05" y="144.34" width="4.96" height="4.95" transform="translate(2.77 298.34) rotate(-61.02)"/><rect class="d" x="216.54" y="198.24" width="4.95" height="4.95" transform="translate(-62.69 295.05) rotate(-61.02)"/><rect class="d" x="218.94" y="193.91" width="4.95" height="4.95" transform="translate(-57.66 294.92) rotate(-61.02)"/><rect class="d" x="221.34" y="189.58" width="4.95" height="4.95" transform="translate(-52.64 294.78) rotate(-61.02)"/><rect class="d" x="223.74" y="185.25" width="4.95" height="4.95" transform="translate(-47.61 294.65) rotate(-61.02)"/><rect class="h" x="226.14" y="180.92" width="4.95" height="4.95" transform="translate(-42.59 294.52) rotate(-61.02)"/><rect class="i" x="228.54" y="176.59" width="4.95" height="4.95" transform="translate(-37.56 294.38) rotate(-61.02)"/><rect class="j" x="230.93" y="172.26" width="4.95" height="4.95" transform="translate(-32.54 294.25) rotate(-61.02)"/><rect class="j" x="233.33" y="167.93" width="4.95" height="4.95" transform="translate(-27.52 294.11) rotate(-61.02)"/><rect class="j" x="235.73" y="163.6" width="4.95" height="4.95" transform="translate(-22.49 293.98) rotate(-61.02)"/><rect class="c" x="238.13" y="159.27" width="4.95" height="4.95" transform="translate(-17.47 293.85) rotate(-61.02)"/><rect class="g" x="240.53" y="154.94" width="4.95" height="4.95" transform="translate(-12.44 293.71) rotate(-61.02)"/><rect class="g" x="242.93" y="150.61" width="4.95" height="4.95" transform="translate(-7.42 293.58) rotate(-61.02)"/><rect class="g" x="245.32" y="146.28" width="4.95" height="4.95" transform="translate(-2.4 293.45) rotate(-61.02)"/><rect class="c" x="247.72" y="141.95" width="4.96" height="4.95" transform="translate(2.63 293.31) rotate(-61.02)"/><rect class="d" x="212.21" y="195.84" width="4.95" height="4.95" transform="translate(-62.82 290.03) rotate(-61.02)"/><rect class="d" x="214.61" y="191.51" width="4.95" height="4.95" transform="translate(-57.8 289.89) rotate(-61.02)"/><rect class="i" x="217.01" y="187.18" width="4.95" height="4.95" transform="translate(-52.77 289.76) rotate(-61.02)"/><rect class="h" x="219.41" y="182.85" width="4.95" height="4.95" transform="translate(-47.75 289.63) rotate(-61.02)"/><rect class="h" x="221.81" y="178.52" width="4.95" height="4.95" transform="translate(-42.72 289.49) rotate(-61.02)"/><rect class="j" x="224.21" y="174.19" width="4.95" height="4.95" transform="translate(-37.7 289.36) rotate(-61.02)"/><rect class="j" x="226.6" y="169.86" width="4.95" height="4.95" transform="translate(-32.67 289.22) rotate(-61.02)"/><rect class="j" x="229" y="165.53" width="4.95" height="4.95" transform="translate(-27.65 289.09) rotate(-61.02)"/><rect class="j" x="231.4" y="161.2" width="4.95" height="4.95" transform="translate(-22.63 288.96) rotate(-61.02)"/><rect class="g" x="233.8" y="156.87" width="4.95" height="4.95" transform="translate(-17.6 288.82) rotate(-61.02)"/><rect class="g" x="236.2" y="152.54" width="4.95" height="4.95" transform="translate(-12.58 288.69) rotate(-61.02)"/><rect class="g" x="238.6" y="148.21" width="4.95" height="4.95" transform="translate(-7.55 288.56) rotate(-61.02)"/><rect class="c" x="240.99" y="143.88" width="4.95" height="4.95" transform="translate(-2.53 288.42) rotate(-61.02)"/><rect class="d" x="205.48" y="197.77" width="4.95" height="4.95" transform="translate(-67.98 285.14) rotate(-61.02)"/><rect class="d" x="207.88" y="193.44" width="4.95" height="4.95" transform="translate(-62.95 285) rotate(-61.02)"/><rect class="i" x="210.28" y="189.11" width="4.95" height="4.95" transform="translate(-57.93 284.87) rotate(-61.02)"/><rect class="i" x="212.68" y="184.78" width="4.95" height="4.95" transform="translate(-52.91 284.74) rotate(-61.02)"/><rect class="j" x="215.08" y="180.45" width="4.95" height="4.95" transform="translate(-47.88 284.6) rotate(-61.02)"/><rect class="j" x="217.48" y="176.12" width="4.95" height="4.95" transform="translate(-42.86 284.47) rotate(-61.02)"/><rect class="j" x="219.88" y="171.79" width="4.95" height="4.95" transform="translate(-37.83 284.33) rotate(-61.02)"/><rect class="j" x="222.27" y="167.46" width="4.95" height="4.95" transform="translate(-32.81 284.2) rotate(-61.02)"/><rect class="j" x="224.67" y="163.13" width="4.95" height="4.95" transform="translate(-27.78 284.07) rotate(-61.02)"/><rect class="c" x="227.07" y="158.8" width="4.95" height="4.95" transform="translate(-22.76 283.93) rotate(-61.02)"/><rect class="g" x="229.47" y="154.47" width="4.95" height="4.95" transform="translate(-17.74 283.8) rotate(-61.02)"/><rect class="g" x="231.87" y="150.14" width="4.95" height="4.95" transform="translate(-12.71 283.66) rotate(-61.02)"/><rect class="g" x="234.27" y="145.81" width="4.95" height="4.95" transform="translate(-7.69 283.53) rotate(-61.02)"/><rect class="d" x="198.76" y="199.71" width="4.95" height="4.95" transform="translate(-73.14 280.25) rotate(-61.02)"/><rect class="d" x="201.15" y="195.38" width="4.95" height="4.95" transform="translate(-68.11 280.11) rotate(-61.02)"/><rect class="i" x="203.55" y="191.05" width="4.95" height="4.95" transform="translate(-63.09 279.98) rotate(-61.02)"/><rect class="i" x="205.95" y="186.72" width="4.95" height="4.95" transform="translate(-58.06 279.85) rotate(-61.02)"/><rect class="h" x="208.35" y="182.39" width="4.95" height="4.95" transform="translate(-53.04 279.71) rotate(-61.02)"/><rect class="j" x="210.75" y="178.06" width="4.95" height="4.95" transform="translate(-48.01 279.58) rotate(-61.02)"/><rect class="j" x="213.15" y="173.73" width="4.95" height="4.95" transform="translate(-42.99 279.44) rotate(-61.02)"/><rect class="j" x="215.55" y="169.4" width="4.95" height="4.95" transform="translate(-37.97 279.31) rotate(-61.02)"/><rect class="j" x="217.94" y="165.07" width="4.95" height="4.95" transform="translate(-32.94 279.18) rotate(-61.02)"/><rect class="c" x="220.34" y="160.74" width="4.95" height="4.95" transform="translate(-27.92 279.04) rotate(-61.02)"/><rect class="g" x="222.74" y="156.41" width="4.95" height="4.95" transform="translate(-22.89 278.91) rotate(-61.02)"/><rect class="c" x="225.14" y="152.08" width="4.95" height="4.95" transform="translate(-17.87 278.77) rotate(-61.02)"/><rect class="g" x="227.54" y="147.75" width="4.95" height="4.95" transform="translate(-12.85 278.64) rotate(-61.02)"/><rect class="c" x="229.94" y="143.42" width="4.95" height="4.95" transform="translate(-7.82 278.51) rotate(-61.02)"/><rect class="d" x="194.43" y="197.31" width="4.95" height="4.95" transform="translate(-73.27 275.22) rotate(-61.02)"/><rect class="i" x="196.82" y="192.98" width="4.95" height="4.95" transform="translate(-68.25 275.09) rotate(-61.02)"/><rect class="i" x="199.22" y="188.65" width="4.95" height="4.95" transform="translate(-63.22 274.96) rotate(-61.02)"/><rect class="i" x="201.62" y="184.32" width="4.95" height="4.95" transform="translate(-58.2 274.82) rotate(-61.02)"/><rect class="j" x="204.02" y="179.99" width="4.95" height="4.95" transform="translate(-53.17 274.69) rotate(-61.02)"/><rect class="j" x="206.42" y="175.66" width="4.95" height="4.95" transform="translate(-48.15 274.55) rotate(-61.02)"/><rect class="j" x="208.82" y="171.33" width="4.95" height="4.95" transform="translate(-43.12 274.42) rotate(-61.02)"/><rect class="i" x="211.21" y="167" width="4.95" height="4.95" transform="translate(-38.1 274.29) rotate(-61.02)"/><rect class="j" x="213.61" y="162.67" width="4.95" height="4.95" transform="translate(-33.08 274.15) rotate(-61.02)"/><rect class="c" x="216.01" y="158.34" width="4.95" height="4.95" transform="translate(-28.05 274.02) rotate(-61.02)"/><rect class="g" x="218.41" y="154.01" width="4.95" height="4.95" transform="translate(-23.03 273.88) rotate(-61.02)"/><rect class="g" x="220.81" y="149.68" width="4.95" height="4.95" transform="translate(-18 273.75) rotate(-61.02)"/><rect class="g" x="223.21" y="145.35" width="4.95" height="4.95" transform="translate(-12.98 273.62) rotate(-61.02)"/><rect class="d" x="187.7" y="199.24" width="4.95" height="4.95" transform="translate(-78.43 270.33) rotate(-61.02)"/><rect class="d" x="190.1" y="194.91" width="4.95" height="4.95" transform="translate(-73.4 270.2) rotate(-61.02)"/><rect class="i" x="192.49" y="190.58" width="4.95" height="4.95" transform="translate(-68.38 270.07) rotate(-61.02)"/><rect class="h" x="194.89" y="186.25" width="4.95" height="4.95" transform="translate(-63.36 269.93) rotate(-61.02)"/><rect class="i" x="197.29" y="181.92" width="4.95" height="4.95" transform="translate(-58.33 269.8) rotate(-61.02)"/><rect class="j" x="199.69" y="177.59" width="4.95" height="4.95" transform="translate(-53.31 269.66) rotate(-61.02)"/><rect class="d" x="202.09" y="173.26" width="4.95" height="4.95" transform="translate(-48.28 269.53) rotate(-61.02)"/><rect class="j" x="204.49" y="168.93" width="4.95" height="4.95" transform="translate(-43.26 269.4) rotate(-61.02)"/><rect class="j" x="206.88" y="164.6" width="4.95" height="4.95" transform="translate(-38.23 269.26) rotate(-61.02)"/><rect class="c" x="209.28" y="160.27" width="4.95" height="4.95" transform="translate(-33.21 269.13) rotate(-61.02)"/><rect class="g" x="211.68" y="155.94" width="4.95" height="4.95" transform="translate(-28.19 268.99) rotate(-61.02)"/><rect class="g" x="214.08" y="151.61" width="4.95" height="4.95" transform="translate(-23.16 268.86) rotate(-61.02)"/><rect class="g" x="216.48" y="147.28" width="4.95" height="4.95" transform="translate(-18.14 268.73) rotate(-61.02)"/><rect class="c" x="218.88" y="142.95" width="4.95" height="4.95" transform="translate(-13.11 268.59) rotate(-61.02)"/><rect class="i" x="183.37" y="196.84" width="4.95" height="4.95" transform="translate(-78.56 265.31) rotate(-61.02)"/><rect class="i" x="185.77" y="192.51" width="4.95" height="4.95" transform="translate(-73.54 265.17) rotate(-61.02)"/><rect class="i" x="188.16" y="188.18" width="4.95" height="4.95" transform="translate(-68.51 265.04) rotate(-61.02)"/><rect class="j" x="190.56" y="183.85" width="4.95" height="4.95" transform="translate(-63.49 264.91) rotate(-61.02)"/><rect class="j" x="192.96" y="179.52" width="4.95" height="4.95" transform="translate(-58.46 264.77) rotate(-61.02)"/><rect class="j" x="195.36" y="175.19" width="4.95" height="4.95" transform="translate(-53.44 264.64) rotate(-61.02)"/><rect class="j" x="197.76" y="170.86" width="4.95" height="4.95" transform="translate(-48.42 264.51) rotate(-61.02)"/><rect class="j" x="200.16" y="166.53" width="4.95" height="4.95" transform="translate(-43.39 264.37) rotate(-61.02)"/><rect class="j" x="202.55" y="162.2" width="4.95" height="4.95" transform="translate(-38.37 264.24) rotate(-61.02)"/><rect class="c" x="204.95" y="157.87" width="4.95" height="4.95" transform="translate(-33.34 264.1) rotate(-61.02)"/><rect class="g" x="207.35" y="153.54" width="4.95" height="4.95" transform="translate(-28.32 263.97) rotate(-61.02)"/><rect class="g" x="209.75" y="149.21" width="4.95" height="4.95" transform="translate(-23.3 263.84) rotate(-61.02)"/><rect class="g" x="212.15" y="144.88" width="4.95" height="4.95" transform="translate(-18.27 263.7) rotate(-61.02)"/><rect class="d" x="176.64" y="198.77" width="4.95" height="4.95" transform="translate(-83.72 260.42) rotate(-61.02)"/><rect class="i" x="179.04" y="194.44" width="4.95" height="4.95" transform="translate(-78.7 260.28) rotate(-61.02)"/><rect class="i" x="181.44" y="190.11" width="4.95" height="4.95" transform="translate(-73.67 260.15) rotate(-61.02)"/><rect class="d" x="183.83" y="185.78" width="4.95" height="4.95" transform="translate(-68.65 260.02) rotate(-61.02)"/><rect class="j" x="186.23" y="181.45" width="4.95" height="4.95" transform="translate(-63.62 259.88) rotate(-61.02)"/><rect class="j" x="188.63" y="177.12" width="4.95" height="4.95" transform="translate(-58.6 259.75) rotate(-61.02)"/><rect class="j" x="191.03" y="172.79" width="4.95" height="4.95" transform="translate(-53.57 259.62) rotate(-61.02)"/><rect class="j" x="193.43" y="168.46" width="4.95" height="4.95" transform="translate(-48.55 259.48) rotate(-61.02)"/><rect class="j" x="195.83" y="164.13" width="4.95" height="4.95" transform="translate(-43.53 259.35) rotate(-61.02)"/><rect class="c" x="198.22" y="159.8" width="4.95" height="4.95" transform="translate(-38.5 259.21) rotate(-61.02)"/><rect class="g" x="200.62" y="155.47" width="4.95" height="4.95" transform="translate(-33.48 259.08) rotate(-61.02)"/><rect class="g" x="203.02" y="151.14" width="4.95" height="4.95" transform="translate(-28.45 258.95) rotate(-61.02)"/><rect class="g" x="205.42" y="146.81" width="4.95" height="4.95" transform="translate(-23.43 258.81) rotate(-61.02)"/><rect class="c" x="207.82" y="142.48" width="4.95" height="4.95" transform="translate(-18.41 258.68) rotate(-61.02)"/><rect class="d" x="172.31" y="196.37" width="4.95" height="4.95" transform="translate(-83.85 255.39) rotate(-61.02)"/><rect class="i" x="174.71" y="192.04" width="4.95" height="4.95" transform="translate(-78.83 255.26) rotate(-61.02)"/><rect class="i" x="177.11" y="187.71" width="4.95" height="4.95" transform="translate(-73.81 255.13) rotate(-61.02)"/><rect class="j" x="179.5" y="183.38" width="4.95" height="4.95" transform="translate(-68.78 254.99) rotate(-61.02)"/><rect class="j" x="181.9" y="179.05" width="4.95" height="4.95" transform="translate(-63.76 254.86) rotate(-61.02)"/><rect class="j" x="184.3" y="174.72" width="4.95" height="4.95" transform="translate(-58.73 254.72) rotate(-61.02)"/><rect class="j" x="186.7" y="170.39" width="4.95" height="4.95" transform="translate(-53.71 254.59) rotate(-61.02)"/><rect class="j" x="189.1" y="166.06" width="4.95" height="4.95" transform="translate(-48.68 254.46) rotate(-61.02)"/><rect class="j" x="191.5" y="161.73" width="4.95" height="4.95" transform="translate(-43.66 254.32) rotate(-61.02)"/><rect class="c" x="193.89" y="157.4" width="4.95" height="4.95" transform="translate(-38.64 254.19) rotate(-61.02)"/><rect class="g" x="196.29" y="153.07" width="4.95" height="4.95" transform="translate(-33.61 254.06) rotate(-61.02)"/><rect class="c" x="198.69" y="148.74" width="4.95" height="4.95" transform="translate(-28.59 253.92) rotate(-61.02)"/><rect class="g" x="201.09" y="144.41" width="4.95" height="4.95" transform="translate(-23.56 253.79) rotate(-61.02)"/><rect class="d" x="165.58" y="198.31" width="4.95" height="4.95" transform="translate(-89.01 250.5) rotate(-61.02)"/><rect class="i" x="167.98" y="193.98" width="4.95" height="4.95" transform="translate(-83.99 250.37) rotate(-61.02)"/><rect class="i" x="170.38" y="189.65" width="4.95" height="4.95" transform="translate(-78.96 250.24) rotate(-61.02)"/><rect class="d" x="172.78" y="185.32" width="4.95" height="4.95" transform="translate(-73.94 250.1) rotate(-61.02)"/><rect class="j" x="175.17" y="180.99" width="4.95" height="4.95" transform="translate(-68.91 249.97) rotate(-61.02)"/><rect class="j" x="177.57" y="176.66" width="4.95" height="4.95" transform="translate(-63.89 249.83) rotate(-61.02)"/><rect class="j" x="179.97" y="172.33" width="4.95" height="4.95" transform="translate(-58.87 249.7) rotate(-61.02)"/><rect class="j" x="182.37" y="168" width="4.95" height="4.95" transform="translate(-53.84 249.57) rotate(-61.02)"/><rect class="j" x="184.77" y="163.67" width="4.95" height="4.95" transform="translate(-48.82 249.43) rotate(-61.02)"/><rect class="j" x="187.17" y="159.34" width="4.95" height="4.95" transform="translate(-43.79 249.3) rotate(-61.02)"/><rect class="g" x="189.56" y="155.01" width="4.95" height="4.95" transform="translate(-38.77 249.17) rotate(-61.02)"/><rect class="g" x="191.96" y="150.67" width="4.95" height="4.95" transform="translate(-33.75 249.03) rotate(-61.02)"/><rect class="g" x="194.36" y="146.34" width="4.95" height="4.95" transform="translate(-28.72 248.9) rotate(-61.02)"/><rect class="g" x="196.76" y="142.01" width="4.95" height="4.95" transform="translate(-23.7 248.76) rotate(-61.02)"/><rect class="d" x="161.25" y="195.91" width="4.95" height="4.95" transform="translate(-89.15 245.48) rotate(-61.02)"/><rect class="i" x="163.65" y="191.58" width="4.95" height="4.95" transform="translate(-84.12 245.35) rotate(-61.02)"/><rect class="i" x="166.05" y="187.25" width="4.95" height="4.95" transform="translate(-79.1 245.21) rotate(-61.02)"/><rect class="d" x="168.45" y="182.92" width="4.95" height="4.95" transform="translate(-74.07 245.08) rotate(-61.02)"/><rect class="j" x="170.84" y="178.59" width="4.95" height="4.95" transform="translate(-69.05 244.94) rotate(-61.02)"/><rect class="j" x="173.24" y="174.26" width="4.95" height="4.95" transform="translate(-64.02 244.81) rotate(-61.02)"/><rect class="j" x="175.64" y="169.93" width="4.95" height="4.95" transform="translate(-59 244.68) rotate(-61.02)"/><rect class="j" x="178.04" y="165.6" width="4.95" height="4.95" transform="translate(-53.98 244.54) rotate(-61.02)"/><rect class="j" x="180.44" y="161.27" width="4.95" height="4.95" transform="translate(-48.95 244.41) rotate(-61.02)"/><rect class="c" x="182.84" y="156.94" width="4.95" height="4.95" transform="translate(-43.93 244.27) rotate(-61.02)"/><rect class="g" x="185.23" y="152.61" width="4.95" height="4.95" transform="translate(-38.9 244.14) rotate(-61.02)"/><rect class="c" x="187.63" y="148.28" width="4.95" height="4.95" transform="translate(-33.88 244.01) rotate(-61.02)"/><rect class="g" x="190.03" y="143.95" width="4.95" height="4.95" transform="translate(-28.86 243.87) rotate(-61.02)"/><rect class="c" x="192.43" y="139.62" width="4.95" height="4.95" transform="translate(-23.83 243.74) rotate(-61.02)"/><rect class="d" x="156.92" y="193.51" width="4.95" height="4.95" transform="translate(-89.28 240.46) rotate(-61.02)"/><rect class="i" x="159.32" y="189.18" width="4.95" height="4.95" transform="translate(-84.26 240.32) rotate(-61.02)"/><rect class="i" x="161.72" y="184.85" width="4.95" height="4.95" transform="translate(-79.23 240.19) rotate(-61.02)"/><rect class="j" x="164.11" y="180.52" width="4.95" height="4.95" transform="translate(-74.21 240.05) rotate(-61.02)"/><rect class="i" x="166.51" y="176.19" width="4.95" height="4.95" transform="translate(-69.18 239.92) rotate(-61.02)"/><rect class="j" x="168.91" y="171.86" width="4.95" height="4.95" transform="translate(-64.16 239.79) rotate(-61.02)"/><rect class="j" x="171.31" y="167.53" width="4.95" height="4.95" transform="translate(-59.13 239.65) rotate(-61.02)"/><rect class="j" x="173.71" y="163.2" width="4.95" height="4.95" transform="translate(-54.11 239.52) rotate(-61.02)"/><rect class="j" x="176.11" y="158.87" width="4.95" height="4.95" transform="translate(-49.09 239.38) rotate(-61.02)"/><rect class="c" x="178.51" y="154.54" width="4.95" height="4.95" transform="translate(-44.06 239.25) rotate(-61.02)"/><rect class="g" x="180.9" y="150.21" width="4.95" height="4.95" transform="translate(-39.04 239.12) rotate(-61.02)"/><rect class="c" x="183.3" y="145.88" width="4.95" height="4.95" transform="translate(-34.01 238.98) rotate(-61.02)"/><rect class="g" x="185.7" y="141.55" width="4.95" height="4.95" transform="translate(-28.99 238.85) rotate(-61.02)"/><rect class="i" x="152.59" y="191.11" width="4.95" height="4.95" transform="translate(-89.41 235.43) rotate(-61.02)"/><rect class="i" x="154.99" y="186.78" width="4.95" height="4.95" transform="translate(-84.39 235.3) rotate(-61.02)"/><rect class="h" x="157.39" y="182.45" width="4.95" height="4.95" transform="translate(-79.36 235.16) rotate(-61.02)"/><rect class="j" x="159.78" y="178.12" width="4.95" height="4.95" transform="translate(-74.34 235.03) rotate(-61.02)"/><rect class="j" x="162.18" y="173.79" width="4.95" height="4.95" transform="translate(-69.32 234.9) rotate(-61.02)"/><rect class="j" x="164.58" y="169.46" width="4.95" height="4.95" transform="translate(-64.29 234.76) rotate(-61.02)"/><rect class="j" x="166.98" y="165.13" width="4.95" height="4.95" transform="translate(-59.27 234.63) rotate(-61.02)"/><rect class="j" x="169.38" y="160.8" width="4.95" height="4.95" transform="translate(-54.24 234.49) rotate(-61.02)"/><rect class="j" x="171.78" y="156.47" width="4.95" height="4.95" transform="translate(-49.22 234.36) rotate(-61.02)"/><rect class="c" x="174.18" y="152.14" width="4.95" height="4.95" transform="translate(-44.2 234.23) rotate(-61.02)"/><rect class="g" x="176.57" y="147.81" width="4.95" height="4.95" transform="translate(-39.17 234.09) rotate(-61.02)"/><rect class="g" x="178.97" y="143.48" width="4.95" height="4.95" transform="translate(-34.15 233.96) rotate(-61.02)"/><rect class="g" x="181.37" y="139.15" width="4.95" height="4.95" transform="translate(-29.12 233.82) rotate(-61.02)"/><rect class="i" x="148.26" y="188.71" width="4.95" height="4.95" transform="translate(-89.55 230.41) rotate(-61.02)"/><rect class="i" x="150.66" y="184.38" width="4.95" height="4.95" transform="translate(-84.52 230.27) rotate(-61.02)"/><rect class="h" x="153.06" y="180.05" width="4.95" height="4.95" transform="translate(-79.5 230.14) rotate(-61.02)"/><rect class="j" x="155.45" y="175.72" width="4.95" height="4.95" transform="translate(-74.47 230.01) rotate(-61.02)"/><rect class="j" x="157.85" y="171.39" width="4.95" height="4.95" transform="translate(-69.45 229.87) rotate(-61.02)"/><rect class="j" x="160.25" y="167.06" width="4.95" height="4.95" transform="translate(-64.43 229.74) rotate(-61.02)"/><rect class="j" x="162.65" y="162.73" width="4.95" height="4.95" transform="translate(-59.4 229.6) rotate(-61.02)"/><rect class="j" x="165.05" y="158.4" width="4.95" height="4.95" transform="translate(-54.38 229.47) rotate(-61.02)"/><rect class="c" x="167.45" y="154.07" width="4.95" height="4.95" transform="translate(-49.35 229.34) rotate(-61.02)"/><rect class="g" x="169.85" y="149.74" width="4.95" height="4.95" transform="translate(-44.33 229.2) rotate(-61.02)"/><rect class="g" x="172.24" y="145.41" width="4.95" height="4.95" transform="translate(-39.31 229.07) rotate(-61.02)"/><rect class="g" x="174.64" y="141.08" width="4.95" height="4.95" transform="translate(-34.28 228.93) rotate(-61.02)"/><rect class="c" x="177.04" y="136.75" width="4.95" height="4.95" transform="translate(-29.26 228.8) rotate(-61.02)"/><rect class="d" x="141.53" y="190.64" width="4.95" height="4.95" transform="translate(-94.71 225.52) rotate(-61.02)"/><rect class="i" x="143.93" y="186.31" width="4.95" height="4.95" transform="translate(-89.68 225.38) rotate(-61.02)"/><rect class="i" x="146.33" y="181.98" width="4.95" height="4.95" transform="translate(-84.66 225.25) rotate(-61.02)"/><rect class="h" x="148.73" y="177.65" width="4.95" height="4.95" transform="translate(-79.63 225.12) rotate(-61.02)"/><rect class="j" x="151.12" y="173.32" width="4.95" height="4.95" transform="translate(-74.61 224.98) rotate(-61.02)"/><rect class="j" x="153.52" y="168.99" width="4.95" height="4.95" transform="translate(-69.58 224.85) rotate(-61.02)"/><rect class="j" x="155.92" y="164.66" width="4.95" height="4.95" transform="translate(-64.56 224.71) rotate(-61.02)"/><rect class="j" x="158.32" y="160.33" width="4.95" height="4.95" transform="translate(-59.54 224.58) rotate(-61.02)"/><rect class="j" x="160.72" y="156" width="4.95" height="4.95" transform="translate(-54.51 224.45) rotate(-61.02)"/><rect class="c" x="163.12" y="151.67" width="4.95" height="4.95" transform="translate(-49.49 224.31) rotate(-61.02)"/><rect class="g" x="165.52" y="147.34" width="4.95" height="4.95" transform="translate(-44.46 224.18) rotate(-61.02)"/><rect class="c" x="167.91" y="143.01" width="4.95" height="4.95" transform="translate(-39.44 224.04) rotate(-61.02)"/><rect class="g" x="170.31" y="138.68" width="4.95" height="4.95" transform="translate(-34.42 223.91) rotate(-61.02)"/><rect class="c" x="172.71" y="134.35" width="4.95" height="4.95" transform="translate(-29.39 223.78) rotate(-61.02)"/><rect class="d" x="137.2" y="188.25" width="4.95" height="4.95" transform="translate(-94.84 220.49) rotate(-61.02)"/><rect class="i" x="139.6" y="183.92" width="4.95" height="4.95" transform="translate(-89.81 220.36) rotate(-61.02)"/><rect class="i" x="142" y="179.59" width="4.95" height="4.95" transform="translate(-84.79 220.23) rotate(-61.02)"/><rect class="h" x="144.4" y="175.26" width="4.95" height="4.95" transform="translate(-79.77 220.09) rotate(-61.02)"/><rect class="j" x="146.79" y="170.93" width="4.95" height="4.95" transform="translate(-74.74 219.96) rotate(-61.02)"/><rect class="j" x="149.19" y="166.59" width="4.95" height="4.95" transform="translate(-69.72 219.82) rotate(-61.02)"/><rect class="j" x="151.59" y="162.26" width="4.95" height="4.95" transform="translate(-64.69 219.69) rotate(-61.02)"/><rect class="j" x="153.99" y="157.93" width="4.95" height="4.95" transform="translate(-59.67 219.56) rotate(-61.02)"/><rect class="j" x="156.39" y="153.6" width="4.95" height="4.95" transform="translate(-54.65 219.42) rotate(-61.02)"/><rect class="c" x="158.79" y="149.27" width="4.95" height="4.95" transform="translate(-49.62 219.29) rotate(-61.02)"/><rect class="g" x="161.19" y="144.94" width="4.95" height="4.95" transform="translate(-44.6 219.15) rotate(-61.02)"/><rect class="g" x="163.58" y="140.61" width="4.95" height="4.95" transform="translate(-39.57 219.02) rotate(-61.02)"/><rect class="g" x="165.98" y="136.28" width="4.95" height="4.95" transform="translate(-34.55 218.89) rotate(-61.02)"/><rect class="c" x="168.38" y="131.95" width="4.95" height="4.95" transform="translate(-29.52 218.75) rotate(-61.02)"/><rect class="d" x="132.87" y="185.85" width="4.95" height="4.95" transform="translate(-94.97 215.47) rotate(-61.02)"/><rect class="i" x="135.27" y="181.52" width="4.95" height="4.95" transform="translate(-89.95 215.34) rotate(-61.02)"/><rect class="h" x="137.67" y="177.19" width="4.95" height="4.95" transform="translate(-84.92 215.2) rotate(-61.02)"/><rect class="h" x="140.07" y="172.86" width="4.95" height="4.95" transform="translate(-79.9 215.07) rotate(-61.02)"/><rect class="j" x="142.46" y="168.53" width="4.95" height="4.95" transform="translate(-74.88 214.93) rotate(-61.02)"/><rect class="j" x="144.86" y="164.2" width="4.95" height="4.95" transform="translate(-69.85 214.8) rotate(-61.02)"/><rect class="j" x="147.26" y="159.87" width="4.95" height="4.95" transform="translate(-64.83 214.67) rotate(-61.02)"/><rect class="j" x="149.66" y="155.54" width="4.95" height="4.95" transform="translate(-59.8 214.53) rotate(-61.02)"/><rect class="j" x="152.06" y="151.21" width="4.95" height="4.95" transform="translate(-54.78 214.4) rotate(-61.02)"/><rect class="j" x="154.46" y="146.88" width="4.95" height="4.95" transform="translate(-49.76 214.26) rotate(-61.02)"/><rect class="g" x="156.86" y="142.55" width="4.95" height="4.95" transform="translate(-44.73 214.13) rotate(-61.02)"/><rect class="g" x="159.25" y="138.22" width="4.95" height="4.95" transform="translate(-39.71 214) rotate(-61.02)"/><rect class="c" x="161.65" y="133.89" width="4.95" height="4.95" transform="translate(-34.68 213.86) rotate(-61.02)"/><rect class="d" x="128.54" y="183.45" width="4.95" height="4.95" transform="translate(-95.11 210.44) rotate(-61.02)"/><rect class="i" x="130.94" y="179.12" width="4.95" height="4.95" transform="translate(-90.08 210.31) rotate(-61.02)"/><rect class="i" x="133.34" y="174.79" width="4.95" height="4.95" transform="translate(-85.06 210.18) rotate(-61.02)"/><rect class="i" x="135.74" y="170.46" width="4.95" height="4.95" transform="translate(-80.03 210.04) rotate(-61.02)"/><rect class="j" x="138.13" y="166.13" width="4.95" height="4.95" transform="translate(-75.01 209.91) rotate(-61.02)"/><rect class="j" x="140.53" y="161.8" width="4.95" height="4.95" transform="translate(-69.99 209.78) rotate(-61.02)"/><rect class="j" x="142.93" y="157.47" width="4.95" height="4.95" transform="translate(-64.96 209.64) rotate(-61.02)"/><rect class="j" x="145.33" y="153.14" width="4.95" height="4.95" transform="translate(-59.94 209.51) rotate(-61.02)"/><rect class="c" x="147.73" y="148.81" width="4.95" height="4.95" transform="translate(-54.91 209.37) rotate(-61.02)"/><rect class="c" x="150.13" y="144.48" width="4.95" height="4.95" transform="translate(-49.89 209.24) rotate(-61.02)"/><rect class="g" x="152.53" y="140.15" width="4.95" height="4.95" transform="translate(-44.87 209.11) rotate(-61.02)"/><rect class="g" x="154.92" y="135.82" width="4.95" height="4.95" transform="translate(-39.84 208.97) rotate(-61.02)"/><rect class="c" x="157.32" y="131.49" width="4.95" height="4.95" transform="translate(-34.82 208.84) rotate(-61.02)"/><rect class="d" x="124.21" y="181.04" width="4.95" height="4.96" transform="translate(-95.24 205.42) rotate(-61.02)"/><rect class="i" x="126.6" y="176.71" width="4.95" height="4.96" transform="translate(-90.22 205.28) rotate(-61.02)"/><rect class="i" x="129" y="172.38" width="4.95" height="4.96" transform="translate(-85.19 205.15) rotate(-61.02)"/><rect class="j" x="131.4" y="168.05" width="4.95" height="4.96" transform="translate(-80.17 205.01) rotate(-61.02)"/><rect class="j" x="133.8" y="163.72" width="4.95" height="4.96" transform="translate(-75.14 204.88) rotate(-61.02)"/><rect class="j" x="136.2" y="159.39" width="4.95" height="4.96" transform="translate(-70.12 204.75) rotate(-61.02)"/><rect class="j" x="138.6" y="155.06" width="4.95" height="4.96" transform="translate(-65.1 204.61) rotate(-61.02)"/><rect class="j" x="141" y="150.73" width="4.95" height="4.96" transform="translate(-60.07 204.48) rotate(-61.02)"/><rect class="c" x="143.39" y="146.4" width="4.95" height="4.96" transform="translate(-55.05 204.34) rotate(-61.02)"/><rect class="c" x="145.79" y="142.07" width="4.95" height="4.96" transform="translate(-50.02 204.21) rotate(-61.02)"/><rect class="g" x="148.19" y="137.74" width="4.95" height="4.96" transform="translate(-45 204.08) rotate(-61.02)"/><rect class="g" x="150.59" y="133.41" width="4.95" height="4.96" transform="translate(-39.98 203.94) rotate(-61.02)"/><rect class="c" x="152.99" y="129.08" width="4.95" height="4.96" transform="translate(-34.95 203.81) rotate(-61.02)"/><rect class="d" x="119.87" y="178.65" width="4.95" height="4.95" transform="translate(-95.37 200.39) rotate(-61.02)"/><rect class="i" x="122.27" y="174.32" width="4.95" height="4.95" transform="translate(-90.35 200.25) rotate(-61.02)"/><rect class="i" x="124.67" y="169.99" width="4.95" height="4.95" transform="translate(-85.33 200.12) rotate(-61.02)"/><rect class="i" x="127.07" y="165.66" width="4.95" height="4.95" transform="translate(-80.3 199.98) rotate(-61.02)"/><rect class="j" x="129.47" y="161.33" width="4.95" height="4.95" transform="translate(-75.28 199.85) rotate(-61.02)"/><rect class="j" x="131.86" y="157" width="4.95" height="4.95" transform="translate(-70.25 199.72) rotate(-61.02)"/><rect class="j" x="134.26" y="152.67" width="4.95" height="4.95" transform="translate(-65.23 199.58) rotate(-61.02)"/><rect class="j" x="136.66" y="148.34" width="4.95" height="4.95" transform="translate(-60.21 199.45) rotate(-61.02)"/><rect class="c" x="139.06" y="144.01" width="4.95" height="4.95" transform="translate(-55.18 199.32) rotate(-61.02)"/><rect class="c" x="141.46" y="139.68" width="4.95" height="4.95" transform="translate(-50.16 199.18) rotate(-61.02)"/><rect class="g" x="143.86" y="135.35" width="4.95" height="4.95" transform="translate(-45.13 199.05) rotate(-61.02)"/><rect class="g" x="146.25" y="131.02" width="4.95" height="4.95" transform="translate(-40.11 198.91) rotate(-61.02)"/><rect class="c" x="148.65" y="126.69" width="4.95" height="4.95" transform="translate(-35.09 198.78) rotate(-61.02)"/><rect class="d" x="115.54" y="176.25" width="4.95" height="4.95" transform="translate(-95.51 195.36) rotate(-61.02)"/><rect class="i" x="117.94" y="171.92" width="4.95" height="4.95" transform="translate(-90.48 195.23) rotate(-61.02)"/><rect class="i" x="120.34" y="167.59" width="4.95" height="4.95" transform="translate(-85.46 195.09) rotate(-61.02)"/><rect class="j" x="122.74" y="163.26" width="4.95" height="4.95" transform="translate(-80.44 194.96) rotate(-61.02)"/><rect class="j" x="125.14" y="158.93" width="4.95" height="4.95" transform="translate(-75.41 194.83) rotate(-61.02)"/><rect class="j" x="127.53" y="154.6" width="4.95" height="4.95" transform="translate(-70.39 194.69) rotate(-61.02)"/><rect class="j" x="129.93" y="150.27" width="4.95" height="4.95" transform="translate(-65.36 194.56) rotate(-61.02)"/><rect class="j" x="132.33" y="145.94" width="4.95" height="4.95" transform="translate(-60.34 194.42) rotate(-61.02)"/><rect class="c" x="134.73" y="141.61" width="4.95" height="4.95" transform="translate(-55.32 194.29) rotate(-61.02)"/><rect class="c" x="137.13" y="137.28" width="4.95" height="4.95" transform="translate(-50.29 194.16) rotate(-61.02)"/><rect class="g" x="139.53" y="132.95" width="4.95" height="4.95" transform="translate(-45.27 194.02) rotate(-61.02)"/><rect class="g" x="141.92" y="128.62" width="4.95" height="4.95" transform="translate(-40.24 193.89) rotate(-61.02)"/><rect class="c" x="144.32" y="124.29" width="4.95" height="4.95" transform="translate(-35.22 193.76) rotate(-61.02)"/><rect class="d" x="111.21" y="173.85" width="4.95" height="4.95" transform="translate(-95.64 190.34) rotate(-61.02)"/><rect class="i" x="113.61" y="169.52" width="4.95" height="4.95" transform="translate(-90.62 190.2) rotate(-61.02)"/><rect class="h" x="116.01" y="165.19" width="4.95" height="4.95" transform="translate(-85.59 190.07) rotate(-61.02)"/><rect class="j" x="118.41" y="160.86" width="4.95" height="4.95" transform="translate(-80.57 189.94) rotate(-61.02)"/><rect class="j" x="120.81" y="156.53" width="4.95" height="4.95" transform="translate(-75.55 189.8) rotate(-61.02)"/><rect class="j" x="123.2" y="152.2" width="4.95" height="4.95" transform="translate(-70.52 189.67) rotate(-61.02)"/><rect class="j" x="125.6" y="147.87" width="4.95" height="4.95" transform="translate(-65.5 189.53) rotate(-61.02)"/><rect class="j" x="128" y="143.54" width="4.95" height="4.95" transform="translate(-60.47 189.4) rotate(-61.02)"/><rect class="c" x="130.4" y="139.21" width="4.95" height="4.95" transform="translate(-55.45 189.27) rotate(-61.02)"/><rect class="c" x="132.8" y="134.88" width="4.95" height="4.95" transform="translate(-50.43 189.13) rotate(-61.02)"/><rect class="g" x="135.2" y="130.55" width="4.95" height="4.95" transform="translate(-45.4 189) rotate(-61.02)"/><rect class="g" x="137.59" y="126.22" width="4.95" height="4.95" transform="translate(-40.38 188.87) rotate(-61.02)"/><rect class="c" x="139.99" y="121.89" width="4.95" height="4.95" transform="translate(-35.35 188.73) rotate(-61.02)"/><rect class="d" x="106.88" y="171.45" width="4.95" height="4.95" transform="translate(-95.78 185.31) rotate(-61.02)"/><rect class="i" x="109.28" y="167.12" width="4.95" height="4.95" transform="translate(-90.75 185.18) rotate(-61.02)"/><rect class="h" x="111.68" y="162.79" width="4.95" height="4.95" transform="translate(-85.73 185.05) rotate(-61.02)"/><rect class="j" x="114.08" y="158.46" width="4.95" height="4.95" transform="translate(-80.7 184.91) rotate(-61.02)"/><rect class="j" x="116.47" y="154.13" width="4.95" height="4.95" transform="translate(-75.68 184.78) rotate(-61.02)"/><rect class="j" x="118.87" y="149.8" width="4.95" height="4.95" transform="translate(-70.66 184.64) rotate(-61.02)"/><rect class="j" x="121.27" y="145.47" width="4.95" height="4.95" transform="translate(-65.63 184.51) rotate(-61.02)"/><rect class="j" x="123.67" y="141.14" width="4.95" height="4.95" transform="translate(-60.61 184.38) rotate(-61.02)"/><rect class="c" x="126.07" y="136.81" width="4.95" height="4.95" transform="translate(-55.58 184.24) rotate(-61.02)"/><rect class="c" x="128.47" y="132.48" width="4.95" height="4.95" transform="translate(-50.56 184.11) rotate(-61.02)"/><rect class="g" x="130.87" y="128.15" width="4.95" height="4.95" transform="translate(-45.54 183.97) rotate(-61.02)"/><rect class="g" x="133.26" y="123.82" width="4.95" height="4.95" transform="translate(-40.51 183.84) rotate(-61.02)"/><rect class="c" x="135.66" y="119.49" width="4.95" height="4.95" transform="translate(-35.49 183.71) rotate(-61.02)"/><rect class="d" x="102.55" y="169.05" width="4.95" height="4.95" transform="translate(-95.91 180.29) rotate(-61.02)"/><rect class="d" x="104.95" y="164.72" width="4.95" height="4.95" transform="translate(-90.89 180.16) rotate(-61.02)"/><rect class="h" x="107.35" y="160.39" width="4.95" height="4.95" transform="translate(-85.86 180.02) rotate(-61.02)"/><rect class="j" x="109.75" y="156.06" width="4.95" height="4.95" transform="translate(-80.84 179.89) rotate(-61.02)"/><rect class="i" x="112.14" y="151.73" width="4.95" height="4.95" transform="translate(-75.81 179.75) rotate(-61.02)"/><rect class="j" x="114.54" y="147.4" width="4.95" height="4.95" transform="translate(-70.79 179.62) rotate(-61.02)"/><rect class="j" x="116.94" y="143.07" width="4.95" height="4.95" transform="translate(-65.77 179.49) rotate(-61.02)"/><rect class="j" x="119.34" y="138.74" width="4.95" height="4.95" transform="translate(-60.74 179.35) rotate(-61.02)"/><rect class="c" x="121.74" y="134.41" width="4.95" height="4.95" transform="translate(-55.72 179.22) rotate(-61.02)"/><rect class="j" x="124.14" y="130.08" width="4.95" height="4.95" transform="translate(-50.69 179.08) rotate(-61.02)"/><rect class="g" x="126.54" y="125.75" width="4.95" height="4.95" transform="translate(-45.67 178.95) rotate(-61.02)"/><rect class="g" x="128.93" y="121.42" width="4.95" height="4.95" transform="translate(-40.64 178.82) rotate(-61.02)"/><rect class="c" x="131.33" y="117.09" width="4.95" height="4.95" transform="translate(-35.62 178.68) rotate(-61.02)"/><rect class="i" x="98.22" y="166.65" width="4.95" height="4.95" transform="translate(-96.04 175.27) rotate(-61.02)"/><rect class="d" x="100.62" y="162.32" width="4.95" height="4.95" transform="translate(-91.02 175.13) rotate(-61.02)"/><rect class="h" x="103.02" y="157.99" width="4.95" height="4.95" transform="translate(-86 175) rotate(-61.02)"/><rect class="j" x="105.42" y="153.66" width="4.95" height="4.95" transform="translate(-80.97 174.86) rotate(-61.02)"/><rect class="j" x="107.81" y="149.33" width="4.95" height="4.95" transform="translate(-75.95 174.73) rotate(-61.02)"/><rect class="j" x="110.21" y="145" width="4.95" height="4.95" transform="translate(-70.92 174.6) rotate(-61.02)"/><rect class="j" x="112.61" y="140.67" width="4.95" height="4.95" transform="translate(-65.9 174.46) rotate(-61.02)"/><rect class="j" x="115.01" y="136.34" width="4.95" height="4.95" transform="translate(-60.88 174.33) rotate(-61.02)"/><rect class="c" x="117.41" y="132.01" width="4.95" height="4.95" transform="translate(-55.85 174.19) rotate(-61.02)"/><rect class="c" x="119.81" y="127.68" width="4.95" height="4.95" transform="translate(-50.83 174.06) rotate(-61.02)"/><rect class="g" x="122.21" y="123.35" width="4.95" height="4.95" transform="translate(-45.8 173.93) rotate(-61.02)"/><rect class="g" x="124.6" y="119.02" width="4.95" height="4.95" transform="translate(-40.78 173.79) rotate(-61.02)"/><rect class="c" x="127" y="114.69" width="4.95" height="4.95" transform="translate(-35.75 173.66) rotate(-61.02)"/><rect class="d" x="93.89" y="164.26" width="4.95" height="4.95" transform="translate(-96.18 170.24) rotate(-61.02)"/><rect class="d" x="96.29" y="159.93" width="4.95" height="4.95" transform="translate(-91.15 170.11) rotate(-61.02)"/><rect class="h" x="98.69" y="155.6" width="4.95" height="4.95" transform="translate(-86.13 169.97) rotate(-61.02)"/><rect class="j" x="101.09" y="151.27" width="4.95" height="4.95" transform="translate(-81.11 169.84) rotate(-61.02)"/><rect class="j" x="103.48" y="146.94" width="4.95" height="4.95" transform="translate(-76.08 169.71) rotate(-61.02)"/><rect class="j" x="105.88" y="142.61" width="4.95" height="4.95" transform="translate(-71.06 169.57) rotate(-61.02)"/><rect class="j" x="108.28" y="138.28" width="4.95" height="4.95" transform="translate(-66.03 169.44) rotate(-61.02)"/><rect class="j" x="110.68" y="133.95" width="4.95" height="4.95" transform="translate(-61.01 169.3) rotate(-61.02)"/><rect class="j" x="113.08" y="129.62" width="4.95" height="4.95" transform="translate(-55.99 169.17) rotate(-61.02)"/><rect class="c" x="115.48" y="125.28" width="4.95" height="4.95" transform="translate(-50.96 169.04) rotate(-61.02)"/><rect class="g" x="117.88" y="120.95" width="4.95" height="4.95" transform="translate(-45.94 168.9) rotate(-61.02)"/><rect class="g" x="120.27" y="116.62" width="4.95" height="4.95" transform="translate(-40.91 168.77) rotate(-61.02)"/><rect class="c" x="122.67" y="112.29" width="4.95" height="4.95" transform="translate(-35.89 168.63) rotate(-61.02)"/><rect class="i" x="89.56" y="161.86" width="4.95" height="4.95" transform="translate(-96.31 165.22) rotate(-61.02)"/><rect class="d" x="91.96" y="157.53" width="4.95" height="4.95" transform="translate(-91.29 165.08) rotate(-61.02)"/><rect class="h" x="94.36" y="153.2" width="4.95" height="4.95" transform="translate(-86.26 164.95) rotate(-61.02)"/><rect class="j" x="96.76" y="148.87" width="4.95" height="4.95" transform="translate(-81.24 164.82) rotate(-61.02)"/><rect class="j" x="99.15" y="144.54" width="4.95" height="4.95" transform="translate(-76.22 164.68) rotate(-61.02)"/><rect class="j" x="101.55" y="140.21" width="4.95" height="4.95" transform="translate(-71.19 164.55) rotate(-61.02)"/><rect class="j" x="103.95" y="135.88" width="4.95" height="4.95" transform="translate(-66.17 164.41) rotate(-61.02)"/><rect class="j" x="106.35" y="131.55" width="4.95" height="4.95" transform="translate(-61.14 164.28) rotate(-61.02)"/><rect class="j" x="108.75" y="127.22" width="4.95" height="4.95" transform="translate(-56.12 164.15) rotate(-61.02)"/><rect class="c" x="111.15" y="122.89" width="4.95" height="4.95" transform="translate(-51.09 164.01) rotate(-61.02)"/><rect class="g" x="113.55" y="118.56" width="4.95" height="4.95" transform="translate(-46.07 163.88) rotate(-61.02)"/><rect class="g" x="115.94" y="114.23" width="4.95" height="4.95" transform="translate(-41.05 163.74) rotate(-61.02)"/><rect class="c" x="118.34" y="109.9" width="4.95" height="4.95" transform="translate(-36.02 163.61) rotate(-61.02)"/><rect class="d" x="85.23" y="159.46" width="4.95" height="4.95" transform="translate(-96.45 160.19) rotate(-61.02)"/><rect class="d" x="87.63" y="155.13" width="4.95" height="4.95" transform="translate(-91.42 160.06) rotate(-61.02)"/><rect class="h" x="90.03" y="150.8" width="4.95" height="4.95" transform="translate(-86.4 159.93) rotate(-61.02)"/><rect class="j" x="92.43" y="146.47" width="4.95" height="4.95" transform="translate(-81.37 159.79) rotate(-61.02)"/><rect class="j" x="94.82" y="142.14" width="4.95" height="4.95" transform="translate(-76.35 159.66) rotate(-61.02)"/><rect class="j" x="97.22" y="137.81" width="4.95" height="4.95" transform="translate(-71.33 159.52) rotate(-61.02)"/><rect class="j" x="99.62" y="133.48" width="4.95" height="4.95" transform="translate(-66.3 159.39) rotate(-61.02)"/><rect class="j" x="102.02" y="129.15" width="4.95" height="4.95" transform="translate(-61.28 159.26) rotate(-61.02)"/><rect class="j" x="104.42" y="124.82" width="4.95" height="4.95" transform="translate(-56.25 159.12) rotate(-61.02)"/><rect class="c" x="106.82" y="120.49" width="4.95" height="4.95" transform="translate(-51.23 158.99) rotate(-61.02)"/><rect class="g" x="109.22" y="116.16" width="4.95" height="4.95" transform="translate(-46.2 158.85) rotate(-61.02)"/><rect class="g" x="111.61" y="111.83" width="4.95" height="4.95" transform="translate(-41.18 158.72) rotate(-61.02)"/><rect class="c" x="114.01" y="107.5" width="4.95" height="4.95" transform="translate(-36.16 158.59) rotate(-61.02)"/><rect class="d" x="80.9" y="157.06" width="4.95" height="4.95" transform="translate(-96.58 155.17) rotate(-61.02)"/><rect class="d" x="83.3" y="152.73" width="4.95" height="4.95" transform="translate(-91.56 155.03) rotate(-61.02)"/><rect class="h" x="85.7" y="148.4" width="4.95" height="4.95" transform="translate(-86.53 154.9) rotate(-61.02)"/><rect class="j" x="88.1" y="144.07" width="4.95" height="4.95" transform="translate(-81.51 154.77) rotate(-61.02)"/><rect class="j" x="90.49" y="139.74" width="4.95" height="4.95" transform="translate(-76.48 154.63) rotate(-61.02)"/><rect class="j" x="92.89" y="135.41" width="4.95" height="4.95" transform="translate(-71.46 154.5) rotate(-61.02)"/><rect class="j" x="95.29" y="131.08" width="4.95" height="4.95" transform="translate(-66.44 154.37) rotate(-61.02)"/><rect class="j" x="97.69" y="126.75" width="4.95" height="4.95" transform="translate(-61.41 154.23) rotate(-61.02)"/><rect class="j" x="100.09" y="122.42" width="4.95" height="4.95" transform="translate(-56.39 154.1) rotate(-61.02)"/><rect class="c" x="102.49" y="118.09" width="4.95" height="4.95" transform="translate(-51.36 153.96) rotate(-61.02)"/><rect class="g" x="104.89" y="113.76" width="4.95" height="4.95" transform="translate(-46.34 153.83) rotate(-61.02)"/><rect class="g" x="107.28" y="109.43" width="4.95" height="4.95" transform="translate(-41.31 153.7) rotate(-61.02)"/><rect class="c" x="109.68" y="105.1" width="4.95" height="4.95" transform="translate(-36.29 153.56) rotate(-61.02)"/><rect class="d" x="76.57" y="154.66" width="4.95" height="4.95" transform="translate(-96.71 150.14) rotate(-61.02)"/><rect class="d" x="78.97" y="150.33" width="4.95" height="4.95" transform="translate(-91.69 150.01) rotate(-61.02)"/><rect class="h" x="81.37" y="146" width="4.95" height="4.95" transform="translate(-86.67 149.88) rotate(-61.02)"/><rect class="j" x="83.77" y="141.67" width="4.95" height="4.95" transform="translate(-81.64 149.74) rotate(-61.02)"/><rect class="j" x="86.16" y="137.34" width="4.95" height="4.95" transform="translate(-76.62 149.61) rotate(-61.02)"/><rect class="j" x="88.56" y="133.01" width="4.95" height="4.95" transform="translate(-71.59 149.48) rotate(-61.02)"/><rect class="j" x="90.96" y="128.68" width="4.95" height="4.95" transform="translate(-66.57 149.34) rotate(-61.02)"/><rect class="j" x="93.36" y="124.35" width="4.95" height="4.95" transform="translate(-61.54 149.21) rotate(-61.02)"/><rect class="j" x="95.76" y="120.02" width="4.95" height="4.95" transform="translate(-56.52 149.07) rotate(-61.02)"/><rect class="c" x="98.16" y="115.69" width="4.95" height="4.95" transform="translate(-51.5 148.94) rotate(-61.02)"/><rect class="g" x="100.55" y="111.36" width="4.95" height="4.95" transform="translate(-46.47 148.81) rotate(-61.02)"/><rect class="g" x="102.95" y="107.03" width="4.95" height="4.95" transform="translate(-41.45 148.67) rotate(-61.02)"/><rect class="c" x="105.35" y="102.7" width="4.95" height="4.95" transform="translate(-36.42 148.54) rotate(-61.02)"/><rect class="d" x="74.64" y="147.93" width="4.95" height="4.95" transform="translate(-91.82 144.99) rotate(-61.02)"/><rect class="d" x="77.04" y="143.6" width="4.95" height="4.95" transform="translate(-86.8 144.85) rotate(-61.02)"/><rect class="d" x="79.44" y="139.27" width="4.95" height="4.95" transform="translate(-81.78 144.72) rotate(-61.02)"/><rect class="j" x="81.83" y="134.94" width="4.95" height="4.95" transform="translate(-76.75 144.58) rotate(-61.02)"/><rect class="j" x="84.23" y="130.61" width="4.95" height="4.95" transform="translate(-71.73 144.45) rotate(-61.02)"/><rect class="j" x="86.63" y="126.28" width="4.95" height="4.95" transform="translate(-66.7 144.32) rotate(-61.02)"/><rect class="j" x="89.03" y="121.95" width="4.95" height="4.95" transform="translate(-61.68 144.18) rotate(-61.02)"/><rect class="j" x="91.43" y="117.62" width="4.95" height="4.95" transform="translate(-56.65 144.05) rotate(-61.02)"/><rect class="c" x="93.83" y="113.29" width="4.95" height="4.95" transform="translate(-51.63 143.92) rotate(-61.02)"/><rect class="g" x="96.22" y="108.96" width="4.95" height="4.95" transform="translate(-46.61 143.78) rotate(-61.02)"/><rect class="g" x="98.62" y="104.63" width="4.95" height="4.95" transform="translate(-41.58 143.65) rotate(-61.02)"/><rect class="c" x="101.02" y="100.3" width="4.95" height="4.95" transform="translate(-36.56 143.51) rotate(-61.02)"/><rect class="d" x="70.31" y="145.54" width="4.95" height="4.95" transform="translate(-91.96 139.96) rotate(-61.02)"/><rect class="d" x="72.71" y="141.2" width="4.95" height="4.95" transform="translate(-86.93 139.83) rotate(-61.02)"/><rect class="j" x="75.11" y="136.87" width="4.95" height="4.95" transform="translate(-81.91 139.69) rotate(-61.02)"/><rect class="j" x="77.5" y="132.54" width="4.95" height="4.95" transform="translate(-76.89 139.56) rotate(-61.02)"/><rect class="i" x="79.9" y="128.21" width="4.95" height="4.95" transform="translate(-71.86 139.43) rotate(-61.02)"/><rect class="j" x="82.3" y="123.88" width="4.95" height="4.95" transform="translate(-66.84 139.29) rotate(-61.02)"/><rect class="j" x="84.7" y="119.55" width="4.95" height="4.95" transform="translate(-61.81 139.16) rotate(-61.02)"/><rect class="j" x="87.1" y="115.22" width="4.95" height="4.95" transform="translate(-56.79 139.03) rotate(-61.02)"/><rect class="j" x="89.5" y="110.89" width="4.95" height="4.95" transform="translate(-51.76 138.89) rotate(-61.02)"/><rect class="g" x="91.89" y="106.56" width="4.95" height="4.95" transform="translate(-46.74 138.76) rotate(-61.02)"/><rect class="g" x="94.29" y="102.23" width="4.95" height="4.95" transform="translate(-41.72 138.62) rotate(-61.02)"/><rect class="c" x="96.69" y="97.9" width="4.95" height="4.95" transform="translate(-36.69 138.49) rotate(-61.02)"/><rect class="c" x="99.09" y="93.57" width="4.95" height="4.95" transform="translate(-31.67 138.36) rotate(-61.02)"/><rect class="d" x="65.98" y="143.14" width="4.95" height="4.95" transform="translate(-92.09 134.94) rotate(-61.02)"/><rect class="d" x="68.38" y="138.81" width="4.95" height="4.95" transform="translate(-87.07 134.8) rotate(-61.02)"/><rect class="j" x="70.78" y="134.48" width="4.95" height="4.95" transform="translate(-82.04 134.67) rotate(-61.02)"/><rect class="j" x="73.17" y="130.15" width="4.95" height="4.95" transform="translate(-77.02 134.54) rotate(-61.02)"/><rect class="j" x="75.57" y="125.82" width="4.95" height="4.95" transform="translate(-71.99 134.4) rotate(-61.02)"/><rect class="j" x="77.97" y="121.49" width="4.95" height="4.95" transform="translate(-66.97 134.27) rotate(-61.02)"/><rect class="j" x="80.37" y="117.16" width="4.95" height="4.95" transform="translate(-61.95 134.13) rotate(-61.02)"/><rect class="j" x="82.77" y="112.83" width="4.95" height="4.95" transform="translate(-56.92 134) rotate(-61.02)"/><rect class="c" x="85.17" y="108.5" width="4.95" height="4.95" transform="translate(-51.9 133.87) rotate(-61.02)"/><rect class="g" x="87.56" y="104.17" width="4.95" height="4.95" transform="translate(-46.87 133.73) rotate(-61.02)"/><rect class="g" x="89.96" y="99.84" width="4.95" height="4.95" transform="translate(-41.85 133.6) rotate(-61.02)"/><rect class="g" x="92.36" y="95.51" width="4.95" height="4.95" transform="translate(-36.83 133.47) rotate(-61.02)"/><rect class="c" x="94.76" y="91.18" width="4.95" height="4.95" transform="translate(-31.8 133.33) rotate(-61.02)"/><rect class="d" x="61.65" y="140.74" width="4.95" height="4.95" transform="translate(-92.23 129.91) rotate(-61.02)"/><rect class="d" x="64.05" y="136.41" width="4.95" height="4.95" transform="translate(-87.2 129.78) rotate(-61.02)"/><rect class="h" x="66.45" y="132.08" width="4.95" height="4.95" transform="translate(-82.18 129.65) rotate(-61.02)"/><rect class="j" x="68.84" y="127.75" width="4.95" height="4.95" transform="translate(-77.15 129.51) rotate(-61.02)"/><rect class="j" x="71.24" y="123.42" width="4.95" height="4.95" transform="translate(-72.13 129.38) rotate(-61.02)"/><rect class="j" x="73.64" y="119.09" width="4.95" height="4.95" transform="translate(-67.1 129.24) rotate(-61.02)"/><rect class="j" x="76.04" y="114.76" width="4.95" height="4.95" transform="translate(-62.08 129.11) rotate(-61.02)"/><rect class="j" x="78.44" y="110.43" width="4.95" height="4.95" transform="translate(-57.06 128.98) rotate(-61.02)"/><rect class="c" x="80.84" y="106.1" width="4.95" height="4.95" transform="translate(-52.03 128.84) rotate(-61.02)"/><rect class="c" x="83.23" y="101.77" width="4.95" height="4.95" transform="translate(-47.01 128.71) rotate(-61.02)"/><rect class="g" x="85.63" y="97.44" width="4.95" height="4.95" transform="translate(-41.98 128.58) rotate(-61.02)"/><rect class="g" x="88.03" y="93.11" width="4.95" height="4.95" transform="translate(-36.96 128.44) rotate(-61.02)"/><rect class="c" x="90.43" y="88.78" width="4.95" height="4.95" transform="translate(-31.94 128.31) rotate(-61.02)"/><rect class="d" x="57.32" y="138.34" width="4.95" height="4.95" transform="translate(-92.36 124.89) rotate(-61.02)"/><rect class="d" x="59.72" y="134.01" width="4.95" height="4.95" transform="translate(-87.34 124.76) rotate(-61.02)"/><rect class="h" x="62.12" y="129.68" width="4.95" height="4.95" transform="translate(-82.31 124.62) rotate(-61.02)"/><rect class="j" x="64.51" y="125.35" width="4.95" height="4.95" transform="translate(-77.29 124.49) rotate(-61.02)"/><rect class="j" x="66.91" y="121.02" width="4.95" height="4.95" transform="translate(-72.26 124.35) rotate(-61.02)"/><rect class="j" x="69.31" y="116.69" width="4.95" height="4.95" transform="translate(-67.24 124.22) rotate(-61.02)"/><rect class="j" x="71.71" y="112.36" width="4.95" height="4.95" transform="translate(-62.21 124.09) rotate(-61.02)"/><rect class="j" x="74.11" y="108.03" width="4.95" height="4.95" transform="translate(-57.19 123.95) rotate(-61.02)"/><rect class="c" x="76.51" y="103.7" width="4.95" height="4.95" transform="translate(-52.17 123.82) rotate(-61.02)"/><rect class="c" x="78.9" y="99.37" width="4.95" height="4.95" transform="translate(-47.14 123.68) rotate(-61.02)"/><rect class="g" x="81.3" y="95.04" width="4.95" height="4.95" transform="translate(-42.12 123.55) rotate(-61.02)"/><rect class="g" x="83.7" y="90.71" width="4.95" height="4.95" transform="translate(-37.09 123.42) rotate(-61.02)"/><rect class="c" x="86.1" y="86.38" width="4.95" height="4.95" transform="translate(-32.07 123.28) rotate(-61.02)"/><rect class="d" x="55.39" y="131.61" width="4.95" height="4.95" transform="translate(-87.47 119.73) rotate(-61.02)"/><rect class="d" x="57.79" y="127.28" width="4.95" height="4.95" transform="translate(-82.44 119.6) rotate(-61.02)"/><rect class="j" x="60.18" y="122.95" width="4.95" height="4.95" transform="translate(-77.42 119.46) rotate(-61.02)"/><rect class="j" x="62.58" y="118.62" width="4.95" height="4.95" transform="translate(-72.4 119.33) rotate(-61.02)"/><rect class="j" x="64.98" y="114.29" width="4.95" height="4.95" transform="translate(-67.37 119.2) rotate(-61.02)"/><rect class="j" x="67.38" y="109.96" width="4.95" height="4.95" transform="translate(-62.35 119.06) rotate(-61.02)"/><rect class="j" x="69.78" y="105.63" width="4.95" height="4.95" transform="translate(-57.32 118.93) rotate(-61.02)"/><rect class="c" x="72.18" y="101.3" width="4.95" height="4.95" transform="translate(-52.3 118.79) rotate(-61.02)"/><rect class="c" x="74.57" y="96.97" width="4.95" height="4.95" transform="translate(-47.28 118.66) rotate(-61.02)"/><rect class="g" x="76.97" y="92.64" width="4.95" height="4.95" transform="translate(-42.25 118.53) rotate(-61.02)"/><rect class="g" x="79.37" y="88.31" width="4.95" height="4.95" transform="translate(-37.23 118.39) rotate(-61.02)"/><rect class="g" x="81.77" y="83.98" width="4.95" height="4.95" transform="translate(-32.2 118.26) rotate(-61.02)"/><rect class="d" x="51.06" y="129.21" width="4.95" height="4.95" transform="translate(-87.6 114.71) rotate(-61.02)"/><rect class="d" x="53.45" y="124.88" width="4.95" height="4.95" transform="translate(-82.58 114.57) rotate(-61.02)"/><rect class="h" x="55.85" y="120.55" width="4.95" height="4.95" transform="translate(-77.55 114.44) rotate(-61.02)"/><rect class="j" x="58.25" y="116.22" width="4.95" height="4.95" transform="translate(-72.53 114.31) rotate(-61.02)"/><rect class="j" x="60.65" y="111.89" width="4.95" height="4.95" transform="translate(-67.51 114.17) rotate(-61.02)"/><rect class="j" x="63.05" y="107.56" width="4.95" height="4.95" transform="translate(-62.48 114.04) rotate(-61.02)"/><rect class="j" x="65.45" y="103.23" width="4.95" height="4.95" transform="translate(-57.46 113.9) rotate(-61.02)"/><rect class="c" x="67.85" y="98.9" width="4.95" height="4.95" transform="translate(-52.43 113.77) rotate(-61.02)"/><rect class="c" x="70.24" y="94.57" width="4.95" height="4.95" transform="translate(-47.41 113.64) rotate(-61.02)"/><rect class="g" x="72.64" y="90.24" width="4.95" height="4.95" transform="translate(-42.39 113.5) rotate(-61.02)"/><rect class="g" x="75.04" y="85.91" width="4.95" height="4.95" transform="translate(-37.36 113.37) rotate(-61.02)"/><rect class="g" x="77.44" y="81.58" width="4.95" height="4.95" transform="translate(-32.34 113.23) rotate(-61.02)"/><rect class="c" x="79.84" y="77.25" width="4.95" height="4.95" transform="translate(-27.31 113.1) rotate(-61.02)"/><rect class="d" x="46.73" y="126.81" width="4.95" height="4.95" transform="translate(-87.74 109.68) rotate(-61.02)"/><rect class="d" x="49.12" y="122.48" width="4.95" height="4.95" transform="translate(-82.71 109.55) rotate(-61.02)"/><rect class="h" x="51.52" y="118.15" width="4.95" height="4.95" transform="translate(-77.69 109.42) rotate(-61.02)"/><rect class="j" x="53.92" y="113.82" width="4.95" height="4.95" transform="translate(-72.66 109.28) rotate(-61.02)"/><rect class="j" x="56.32" y="109.49" width="4.95" height="4.95" transform="translate(-67.64 109.15) rotate(-61.02)"/><rect class="j" x="58.72" y="105.16" width="4.95" height="4.95" transform="translate(-62.62 109.01) rotate(-61.02)"/><rect class="j" x="61.12" y="100.83" width="4.95" height="4.95" transform="translate(-57.59 108.88) rotate(-61.02)"/><rect class="j" x="63.52" y="96.5" width="4.95" height="4.95" transform="translate(-52.57 108.75) rotate(-61.02)"/><rect class="c" x="65.91" y="92.17" width="4.95" height="4.95" transform="translate(-47.54 108.61) rotate(-61.02)"/><rect class="c" x="68.31" y="87.84" width="4.95" height="4.95" transform="translate(-42.52 108.48) rotate(-61.02)"/><rect class="g" x="70.71" y="83.51" width="4.95" height="4.95" transform="translate(-37.5 108.34) rotate(-61.02)"/><rect class="g" x="73.11" y="79.18" width="4.95" height="4.95" transform="translate(-32.47 108.21) rotate(-61.02)"/><rect class="c" x="75.51" y="74.85" width="4.95" height="4.95" transform="translate(-27.45 108.08) rotate(-61.02)"/><rect class="d" x="44.79" y="120.08" width="4.95" height="4.96" transform="translate(-82.85 104.52) rotate(-61.02)"/><rect class="d" x="47.19" y="115.75" width="4.95" height="4.96" transform="translate(-77.82 104.39) rotate(-61.02)"/><rect class="d" x="49.59" y="111.42" width="4.95" height="4.96" transform="translate(-72.8 104.25) rotate(-61.02)"/><rect class="j" x="51.99" y="107.09" width="4.95" height="4.96" transform="translate(-67.77 104.12) rotate(-61.02)"/><rect class="j" x="54.38" y="102.76" width="4.95" height="4.96" transform="translate(-62.75 103.98) rotate(-61.02)"/><rect class="j" x="56.78" y="98.43" width="4.95" height="4.96" transform="translate(-57.73 103.85) rotate(-61.02)"/><rect class="j" x="59.18" y="94.1" width="4.95" height="4.96" transform="translate(-52.7 103.72) rotate(-61.02)"/><rect class="c" x="61.58" y="89.77" width="4.95" height="4.96" transform="translate(-47.68 103.58) rotate(-61.02)"/><rect class="c" x="63.98" y="85.44" width="4.95" height="4.96" transform="translate(-42.65 103.45) rotate(-61.02)"/><rect class="g" x="66.38" y="81.11" width="4.95" height="4.96" transform="translate(-37.63 103.32) rotate(-61.02)"/><rect class="c" x="68.77" y="76.78" width="4.95" height="4.96" transform="translate(-32.61 103.18) rotate(-61.02)"/><rect class="c" x="71.17" y="72.45" width="4.95" height="4.96" transform="translate(-27.58 103.05) rotate(-61.02)"/><rect class="d" x="40.46" y="117.68" width="4.95" height="4.95" transform="translate(-82.98 99.49) rotate(-61.02)"/><rect class="d" x="42.85" y="113.35" width="4.95" height="4.95" transform="translate(-77.96 99.36) rotate(-61.02)"/><rect class="h" x="45.25" y="109.02" width="4.95" height="4.95" transform="translate(-72.93 99.22) rotate(-61.02)"/><rect class="j" x="47.65" y="104.69" width="4.95" height="4.95" transform="translate(-67.91 99.09) rotate(-61.02)"/><rect class="j" x="50.05" y="100.36" width="4.95" height="4.95" transform="translate(-62.88 98.96) rotate(-61.02)"/><rect class="j" x="52.45" y="96.03" width="4.95" height="4.95" transform="translate(-57.86 98.82) rotate(-61.02)"/><rect class="j" x="54.85" y="91.7" width="4.95" height="4.95" transform="translate(-52.84 98.69) rotate(-61.02)"/><rect class="c" x="57.25" y="87.37" width="4.95" height="4.95" transform="translate(-47.81 98.55) rotate(-61.02)"/><rect class="c" x="59.64" y="83.04" width="4.95" height="4.95" transform="translate(-42.79 98.42) rotate(-61.02)"/><rect class="g" x="62.04" y="78.71" width="4.95" height="4.95" transform="translate(-37.76 98.29) rotate(-61.02)"/><rect class="g" x="64.44" y="74.38" width="4.95" height="4.95" transform="translate(-32.74 98.15) rotate(-61.02)"/><rect class="c" x="66.84" y="70.05" width="4.95" height="4.95" transform="translate(-27.71 98.02) rotate(-61.02)"/><rect class="d" x="36.13" y="115.28" width="4.95" height="4.95" transform="translate(-83.11 94.47) rotate(-61.02)"/><rect class="d" x="38.52" y="110.95" width="4.95" height="4.95" transform="translate(-78.09 94.33) rotate(-61.02)"/><rect class="d" x="40.92" y="106.62" width="4.95" height="4.95" transform="translate(-73.07 94.2) rotate(-61.02)"/><rect class="h" x="43.32" y="102.29" width="4.95" height="4.95" transform="translate(-68.04 94.07) rotate(-61.02)"/><rect class="j" x="45.72" y="97.96" width="4.95" height="4.95" transform="translate(-63.02 93.93) rotate(-61.02)"/><rect class="j" x="48.12" y="93.63" width="4.95" height="4.95" transform="translate(-57.99 93.8) rotate(-61.02)"/><rect class="j" x="50.52" y="89.3" width="4.95" height="4.95" transform="translate(-52.97 93.66) rotate(-61.02)"/><rect class="c" x="52.91" y="84.97" width="4.95" height="4.95" transform="translate(-47.95 93.53) rotate(-61.02)"/><rect class="c" x="55.31" y="80.64" width="4.95" height="4.95" transform="translate(-42.92 93.4) rotate(-61.02)"/><rect class="c" x="57.71" y="76.31" width="4.95" height="4.95" transform="translate(-37.9 93.26) rotate(-61.02)"/><rect class="g" x="60.11" y="71.98" width="4.95" height="4.95" transform="translate(-32.87 93.13) rotate(-61.02)"/><rect class="c" x="62.51" y="67.65" width="4.95" height="4.95" transform="translate(-27.85 92.99) rotate(-61.02)"/><rect class="i" x="34.19" y="108.56" width="4.95" height="4.95" transform="translate(-78.22 89.31) rotate(-61.02)"/><rect class="d" x="36.59" y="104.23" width="4.95" height="4.95" transform="translate(-73.2 89.17) rotate(-61.02)"/><rect class="h" x="38.99" y="99.89" width="4.95" height="4.95" transform="translate(-68.18 89.04) rotate(-61.02)"/><rect class="j" x="41.39" y="95.56" width="4.95" height="4.95" transform="translate(-63.15 88.91) rotate(-61.02)"/><rect class="j" x="43.79" y="91.23" width="4.95" height="4.95" transform="translate(-58.13 88.77) rotate(-61.02)"/><rect class="j" x="46.19" y="86.9" width="4.95" height="4.95" transform="translate(-53.1 88.64) rotate(-61.02)"/><rect class="j" x="48.58" y="82.57" width="4.95" height="4.95" transform="translate(-48.08 88.51) rotate(-61.02)"/><rect class="c" x="50.98" y="78.24" width="4.95" height="4.95" transform="translate(-43.06 88.37) rotate(-61.02)"/><rect class="c" x="53.38" y="73.91" width="4.95" height="4.95" transform="translate(-38.03 88.24) rotate(-61.02)"/><rect class="g" x="55.78" y="69.58" width="4.95" height="4.95" transform="translate(-33.01 88.1) rotate(-61.02)"/><rect class="c" x="58.18" y="65.25" width="4.95" height="4.95" transform="translate(-27.98 87.97) rotate(-61.02)"/><rect class="c" x="60.58" y="60.92" width="4.95" height="4.95" transform="translate(-22.96 87.84) rotate(-61.02)"/><rect class="d" x="32.26" y="101.83" width="4.95" height="4.95" transform="translate(-73.33 84.15) rotate(-61.02)"/><rect class="d" x="34.66" y="97.5" width="4.95" height="4.95" transform="translate(-68.31 84.02) rotate(-61.02)"/><rect class="d" x="37.06" y="93.17" width="4.95" height="4.95" transform="translate(-63.29 83.88) rotate(-61.02)"/><rect class="j" x="39.46" y="88.84" width="4.95" height="4.95" transform="translate(-58.26 83.75) rotate(-61.02)"/><rect class="j" x="41.86" y="84.51" width="4.95" height="4.95" transform="translate(-53.24 83.62) rotate(-61.02)"/><rect class="j" x="44.25" y="80.18" width="4.95" height="4.95" transform="translate(-48.21 83.48) rotate(-61.02)"/><rect class="j" x="46.65" y="75.85" width="4.95" height="4.95" transform="translate(-43.19 83.35) rotate(-61.02)"/><rect class="c" x="49.05" y="71.52" width="4.95" height="4.95" transform="translate(-38.16 83.21) rotate(-61.02)"/><rect class="g" x="51.45" y="67.19" width="4.95" height="4.95" transform="translate(-33.14 83.08) rotate(-61.02)"/><rect class="c" x="53.85" y="62.86" width="4.95" height="4.95" transform="translate(-28.12 82.95) rotate(-61.02)"/><rect class="c" x="56.25" y="58.53" width="4.95" height="4.95" transform="translate(-23.09 82.81) rotate(-61.02)"/><rect class="d" x="27.93" y="99.43" width="4.95" height="4.95" transform="translate(-73.47 79.13) rotate(-61.02)"/><rect class="d" x="30.33" y="95.1" width="4.95" height="4.95" transform="translate(-68.44 78.99) rotate(-61.02)"/><rect class="d" x="32.73" y="90.77" width="4.95" height="4.95" transform="translate(-63.42 78.86) rotate(-61.02)"/><rect class="j" x="35.13" y="86.44" width="4.95" height="4.95" transform="translate(-58.4 78.72) rotate(-61.02)"/><rect class="j" x="37.53" y="82.11" width="4.95" height="4.95" transform="translate(-53.37 78.59) rotate(-61.02)"/><rect class="i" x="39.92" y="77.78" width="4.95" height="4.95" transform="translate(-48.35 78.46) rotate(-61.02)"/><rect class="j" x="42.32" y="73.45" width="4.95" height="4.95" transform="translate(-43.32 78.32) rotate(-61.02)"/><rect class="j" x="44.72" y="69.12" width="4.95" height="4.95" transform="translate(-38.3 78.19) rotate(-61.02)"/><rect class="g" x="47.12" y="64.79" width="4.95" height="4.95" transform="translate(-33.27 78.06) rotate(-61.02)"/><rect class="g" x="49.52" y="60.46" width="4.95" height="4.95" transform="translate(-28.25 77.92) rotate(-61.02)"/><rect class="c" x="51.92" y="56.13" width="4.95" height="4.95" transform="translate(-23.23 77.79) rotate(-61.02)"/><rect class="d" x="26" y="92.7" width="4.95" height="4.95" transform="translate(-68.58 73.97) rotate(-61.02)"/><rect class="d" x="28.4" y="88.37" width="4.95" height="4.95" transform="translate(-63.55 73.83) rotate(-61.02)"/><rect class="d" x="30.8" y="84.04" width="4.95" height="4.95" transform="translate(-58.53 73.7) rotate(-61.02)"/><rect class="j" x="33.2" y="79.71" width="4.95" height="4.95" transform="translate(-53.51 73.57) rotate(-61.02)"/><rect class="j" x="35.59" y="75.38" width="4.95" height="4.95" transform="translate(-48.48 73.43) rotate(-61.02)"/><rect class="j" x="37.99" y="71.05" width="4.95" height="4.95" transform="translate(-43.46 73.3) rotate(-61.02)"/><rect class="j" x="40.39" y="66.72" width="4.95" height="4.95" transform="translate(-38.43 73.17) rotate(-61.02)"/><rect class="c" x="42.79" y="62.39" width="4.95" height="4.95" transform="translate(-33.41 73.03) rotate(-61.02)"/><rect class="g" x="45.19" y="58.06" width="4.95" height="4.95" transform="translate(-28.38 72.9) rotate(-61.02)"/><rect class="c" x="47.59" y="53.73" width="4.95" height="4.95" transform="translate(-23.36 72.76) rotate(-61.02)"/><rect class="d" x="21.67" y="90.3" width="4.95" height="4.95" transform="translate(-68.71 68.94) rotate(-61.02)"/><rect class="i" x="24.07" y="85.97" width="4.95" height="4.95" transform="translate(-63.69 68.81) rotate(-61.02)"/><rect class="d" x="26.47" y="81.64" width="4.95" height="4.95" transform="translate(-58.66 68.68) rotate(-61.02)"/><rect class="j" x="28.87" y="77.31" width="4.95" height="4.95" transform="translate(-53.64 68.54) rotate(-61.02)"/><rect class="j" x="31.26" y="72.98" width="4.95" height="4.95" transform="translate(-48.61 68.41) rotate(-61.02)"/><rect class="j" x="33.66" y="68.65" width="4.95" height="4.95" transform="translate(-43.59 68.27) rotate(-61.02)"/><rect class="j" x="36.06" y="64.32" width="4.95" height="4.95" transform="translate(-38.57 68.14) rotate(-61.02)"/><rect class="c" x="38.46" y="59.99" width="4.95" height="4.95" transform="translate(-33.54 68.01) rotate(-61.02)"/><rect class="g" x="40.86" y="55.66" width="4.95" height="4.95" transform="translate(-28.52 67.87) rotate(-61.02)"/><rect class="c" x="43.26" y="51.33" width="4.95" height="4.95" transform="translate(-23.49 67.74) rotate(-61.02)"/><rect class="c" x="45.66" y="47" width="4.95" height="4.95" transform="translate(-18.47 67.61) rotate(-61.02)"/><rect class="i" x="19.74" y="83.57" width="4.95" height="4.95" transform="translate(-63.82 63.79) rotate(-61.02)"/><rect class="d" x="22.14" y="79.24" width="4.95" height="4.95" transform="translate(-58.8 63.65) rotate(-61.02)"/><rect class="d" x="24.54" y="74.91" width="4.95" height="4.95" transform="translate(-53.77 63.52) rotate(-61.02)"/><rect class="j" x="26.93" y="70.58" width="4.95" height="4.95" transform="translate(-48.75 63.38) rotate(-61.02)"/><rect class="j" x="29.33" y="66.25" width="4.95" height="4.95" transform="translate(-43.72 63.25) rotate(-61.02)"/><rect class="j" x="31.73" y="61.92" width="4.95" height="4.95" transform="translate(-38.7 63.12) rotate(-61.02)"/><rect class="c" x="34.13" y="57.59" width="4.95" height="4.95" transform="translate(-33.68 62.98) rotate(-61.02)"/><rect class="g" x="36.53" y="53.26" width="4.95" height="4.95" transform="translate(-28.65 62.85) rotate(-61.02)"/><rect class="g" x="38.93" y="48.93" width="4.95" height="4.95" transform="translate(-23.63 62.72) rotate(-61.02)"/><rect class="c" x="41.33" y="44.6" width="4.95" height="4.95" transform="translate(-18.6 62.58) rotate(-61.02)"/><rect class="i" x="17.81" y="76.84" width="4.95" height="4.95" transform="translate(-58.93 58.63) rotate(-61.02)"/><rect class="d" x="20.21" y="72.51" width="4.95" height="4.95" transform="translate(-53.91 58.49) rotate(-61.02)"/><rect class="j" x="22.6" y="68.18" width="4.95" height="4.95" transform="translate(-48.88 58.36) rotate(-61.02)"/><rect class="j" x="25" y="63.85" width="4.95" height="4.95" transform="translate(-43.86 58.23) rotate(-61.02)"/><rect class="i" x="27.4" y="59.52" width="4.95" height="4.95" transform="translate(-38.83 58.09) rotate(-61.02)"/><rect class="j" x="29.8" y="55.19" width="4.95" height="4.95" transform="translate(-33.81 57.96) rotate(-61.02)"/><rect class="c" x="32.2" y="50.86" width="4.95" height="4.95" transform="translate(-28.79 57.82) rotate(-61.02)"/><rect class="g" x="34.6" y="46.53" width="4.95" height="4.95" transform="translate(-23.76 57.69) rotate(-61.02)"/><rect class="c" x="37" y="42.2" width="4.95" height="4.95" transform="translate(-18.74 57.56) rotate(-61.02)"/><rect class="i" x="13.48" y="74.45" width="4.95" height="4.95" transform="translate(-59.07 53.6) rotate(-61.02)"/><rect class="d" x="15.88" y="70.12" width="4.95" height="4.95" transform="translate(-54.04 53.47) rotate(-61.02)"/><rect class="d" x="18.27" y="65.79" width="4.95" height="4.95" transform="translate(-49.02 53.34) rotate(-61.02)"/><rect class="i" x="20.67" y="61.46" width="4.95" height="4.95" transform="translate(-43.99 53.2) rotate(-61.02)"/><rect class="i" x="23.07" y="57.13" width="4.95" height="4.95" transform="translate(-38.97 53.07) rotate(-61.02)"/><rect class="j" x="25.47" y="52.79" width="4.95" height="4.95" transform="translate(-33.94 52.93) rotate(-61.02)"/><rect class="j" x="27.87" y="48.46" width="4.95" height="4.95" transform="translate(-28.92 52.8) rotate(-61.02)"/><rect class="g" x="30.27" y="44.13" width="4.95" height="4.95" transform="translate(-23.9 52.67) rotate(-61.02)"/><rect class="g" x="32.66" y="39.8" width="4.95" height="4.95" transform="translate(-18.87 52.53) rotate(-61.02)"/><rect class="d" x="11.55" y="67.72" width="4.95" height="4.95" transform="translate(-54.17 48.45) rotate(-61.02)"/><rect class="d" x="13.94" y="63.39" width="4.95" height="4.95" transform="translate(-49.15 48.31) rotate(-61.02)"/><rect class="d" x="16.34" y="59.06" width="4.95" height="4.95" transform="translate(-44.13 48.18) rotate(-61.02)"/><rect class="j" x="18.74" y="54.73" width="4.95" height="4.95" transform="translate(-39.1 48.04) rotate(-61.02)"/><rect class="j" x="21.14" y="50.4" width="4.95" height="4.95" transform="translate(-34.08 47.91) rotate(-61.02)"/><rect class="j" x="23.54" y="46.07" width="4.95" height="4.95" transform="translate(-29.05 47.78) rotate(-61.02)"/><rect class="c" x="25.94" y="41.74" width="4.95" height="4.95" transform="translate(-24.03 47.64) rotate(-61.02)"/><rect class="g" x="28.33" y="37.41" width="4.95" height="4.95" transform="translate(-19.01 47.51) rotate(-61.02)"/><rect class="d" x="9.61" y="60.99" width="4.95" height="4.95" transform="translate(-49.28 43.29) rotate(-61.02)"/><rect class="d" x="12.01" y="56.66" width="4.95" height="4.95" transform="translate(-44.26 43.15) rotate(-61.02)"/><rect class="d" x="14.41" y="52.33" width="4.95" height="4.95" transform="translate(-39.24 43.02) rotate(-61.02)"/><rect class="j" x="16.81" y="48" width="4.95" height="4.95" transform="translate(-34.21 42.89) rotate(-61.02)"/><rect class="d" x="19.21" y="43.67" width="4.95" height="4.95" transform="translate(-29.19 42.75) rotate(-61.02)"/><rect class="j" x="21.61" y="39.34" width="4.95" height="4.95" transform="translate(-24.16 42.62) rotate(-61.02)"/><rect class="c" x="24" y="35.01" width="4.95" height="4.95" transform="translate(-19.14 42.48) rotate(-61.02)"/><rect class="c" x="26.4" y="30.68" width="4.95" height="4.95" transform="translate(-14.12 42.35) rotate(-61.02)"/><rect class="d" x="10.08" y="49.93" width="4.95" height="4.95" transform="translate(-39.37 38) rotate(-61.02)"/><rect class="d" x="12.48" y="45.6" width="4.95" height="4.95" transform="translate(-34.35 37.86) rotate(-61.02)"/><rect class="i" x="14.88" y="41.27" width="4.95" height="4.95" transform="translate(-29.32 37.73) rotate(-61.02)"/><rect class="j" x="17.28" y="36.94" width="4.95" height="4.95" transform="translate(-24.3 37.59) rotate(-61.02)"/><rect class="j" x="19.67" y="32.61" width="4.95" height="4.95" transform="translate(-19.27 37.46) rotate(-61.02)"/><rect class="f" x="22.07" y="28.28" width="4.95" height="4.95" transform="translate(-14.25 37.33) rotate(-61.02)"/><rect class="d" x="8.15" y="43.2" width="4.95" height="4.95" transform="translate(-34.48 32.84) rotate(-61.02)"/><rect class="d" x="10.55" y="38.87" width="4.95" height="4.95" transform="translate(-29.46 32.7) rotate(-61.02)"/><rect class="j" x="12.95" y="34.54" width="4.95" height="4.95" transform="translate(-24.43 32.57) rotate(-61.02)"/><rect class="j" x="15.34" y="30.21" width="4.95" height="4.95" transform="translate(-19.41 32.44) rotate(-61.02)"/><rect class="c" x="17.74" y="25.88" width="4.95" height="4.95" transform="translate(-14.38 32.3) rotate(-61.02)"/><rect class="f" x="20.14" y="21.55" width="4.95" height="4.95" transform="translate(-9.36 32.17) rotate(-61.02)"/><rect class="d" x="6.22" y="36.47" width="4.95" height="4.95" transform="translate(-29.59 27.68) rotate(-61.02)"/><rect class="d" x="8.62" y="32.14" width="4.95" height="4.95" transform="translate(-24.57 27.55) rotate(-61.02)"/><rect class="i" x="11.01" y="27.81" width="4.95" height="4.95" transform="translate(-19.54 27.41) rotate(-61.02)"/><rect class="i" x="13.41" y="23.48" width="4.95" height="4.95" transform="translate(-14.52 27.28) rotate(-61.02)"/><rect class="f" x="15.81" y="19.15" width="4.95" height="4.95" transform="translate(-9.49 27.14) rotate(-61.02)"/><rect class="d" x="6.68" y="25.41" width="4.95" height="4.95" transform="translate(-19.68 22.39) rotate(-61.02)"/><rect class="i" x="9.08" y="21.08" width="4.95" height="4.95" transform="translate(-14.65 22.25) rotate(-61.02)"/><rect class="e" x="11.48" y="16.75" width="4.95" height="4.95" transform="translate(-9.63 22.12) rotate(-61.02)"/><rect class="e" x="13.88" y="12.42" width="4.96" height="4.95" transform="translate(-4.6 21.99) rotate(-61.02)"/><rect class="e" x="4.75" y="18.69" width="4.95" height="4.95" transform="translate(-14.78 17.23) rotate(-61.02)"/><rect class="e" x="7.15" y="14.36" width="4.95" height="4.95" transform="translate(-9.76 17.1) rotate(-61.02)"/><rect class="e" x="9.55" y="10.02" width="4.96" height="4.95" transform="translate(-4.73 16.96) rotate(-61.02)"/><rect class="b" x="5.22" y="7.62" width="4.96" height="4.95" transform="translate(-4.87 11.94) rotate(-61.02)"/><rect class="b" x=".89" y="5.22" width="4.96" height="4.95" transform="translate(-5 6.91) rotate(-61.02)"/><rect class="b" x="3.29" y=".89" width="4.95" height="4.95" transform="translate(.03 6.78) rotate(-61.02)"/></svg>